<?xml version="1.0" encoding="UTF-8"?>
<svg version="1.1" xmlns="http://www.w3.org/2000/svg" width="664" height="318">
<path d="M0 0 C219.12 0 438.24 0 664 0 C664 104.94 664 209.88 664 318 C444.88 318 225.76 318 0 318 C0 213.06 0 108.12 0 0 Z " fill="#FBFCFC" transform="translate(0,0)"/>
<path d="M0 0 C2.06176669 1.66288218 4.10394764 3.35036497 6.125 5.0625 C6.63224609 5.49143555 7.13949219 5.92037109 7.66210938 6.36230469 C33.5048047 28.45469759 51.9873878 61.04092335 54.95288086 95.23852539 C56.03731121 113.03087406 56.26210599 130.86844205 51.125 148.0625 C50.80354004 149.18736816 50.80354004 149.18736816 50.47558594 150.33496094 C44.33729853 171.50177735 33.97870237 190.87579638 18.50585938 206.64208984 C17.17145284 208.01471665 15.87394838 209.4229227 14.578125 210.83203125 C3.352463 222.72102782 -10.18664701 231.47065171 -25.01660156 238.20849609 C-26.75389897 239.00684953 -28.46796771 239.85521798 -30.1796875 240.70703125 C-46.83092604 248.59340921 -64.10848086 250.52912401 -82.3125 250.5625 C-83.06573547 250.56699158 -83.81897095 250.57148315 -84.59503174 250.57611084 C-98.40126284 250.6096001 -111.77052592 248.93134446 -124.875 244.375 C-125.61500244 244.12226318 -126.35500488 243.86952637 -127.11743164 243.60913086 C-143.23394395 237.8994475 -157.88188812 229.1379538 -170.875 218.0625 C-172.31359375 216.84433594 -172.31359375 216.84433594 -173.78125 215.6015625 C-196.48655283 195.87925021 -211.42503659 167.44070511 -216.875 138.0625 C-217.08253906 137.04285156 -217.29007813 136.02320313 -217.50390625 134.97265625 C-224.00679778 98.1835706 -214.33304145 61.09861198 -193.10205078 30.74609375 C-189.33933443 25.58340136 -185.17800825 20.77827047 -180.875 16.0625 C-180.01132813 15.11503906 -179.14765625 14.16757813 -178.2578125 13.19140625 C-157.64750224 -8.36685596 -130.08367224 -21.17782187 -100.875 -25.9375 C-99.81410156 -26.11925781 -98.75320312 -26.30101563 -97.66015625 -26.48828125 C-63.33342085 -30.56214562 -27.49521693 -21.042428 0 0 Z " fill="#FBFCFC" transform="translate(224.875,57.9375)"/>
<path d="M0 0 C2.06176669 1.66288218 4.10394764 3.35036497 6.125 5.0625 C6.63224609 5.49143555 7.13949219 5.92037109 7.66210938 6.36230469 C33.5048047 28.45469759 51.9873878 61.04092335 54.95288086 95.23852539 C56.03731121 113.03087406 56.26210599 130.86844205 51.125 148.0625 C50.80354004 149.18736816 50.80354004 149.18736816 50.47558594 150.33496094 C44.33729853 171.50177735 33.97870237 190.87579638 18.50585938 206.64208984 C17.17145284 208.01471665 15.87394838 209.4229227 14.578125 210.83203125 C3.352463 222.72102782 -10.18664701 231.47065171 -25.01660156 238.20849609 C-26.75389897 239.00684953 -28.46796771 239.85521798 -30.1796875 240.70703125 C-46.83092604 248.59340921 -64.10848086 250.52912401 -82.3125 250.5625 C-83.06573547 250.56699158 -83.81897095 250.57148315 -84.59503174 250.57611084 C-98.40126284 250.6096001 -111.77052592 248.93134446 -124.875 244.375 C-125.61500244 244.12226318 -126.35500488 243.86952637 -127.11743164 243.60913086 C-143.23394395 237.8994475 -157.88188812 229.1379538 -170.875 218.0625 C-172.31359375 216.84433594 -172.31359375 216.84433594 -173.78125 215.6015625 C-196.48655283 195.87925021 -211.42503659 167.44070511 -216.875 138.0625 C-217.08253906 137.04285156 -217.29007813 136.02320313 -217.50390625 134.97265625 C-224.00679778 98.1835706 -214.33304145 61.09861198 -193.10205078 30.74609375 C-189.33933443 25.58340136 -185.17800825 20.77827047 -180.875 16.0625 C-180.01132813 15.11503906 -179.14765625 14.16757813 -178.2578125 13.19140625 C-157.64750224 -8.36685596 -130.08367224 -21.17782187 -100.875 -25.9375 C-99.81410156 -26.11925781 -98.75320312 -26.30101563 -97.66015625 -26.48828125 C-63.33342085 -30.56214562 -27.49521693 -21.042428 0 0 Z M-129.875 6.0625 C-130.48891602 6.37703125 -131.10283203 6.6915625 -131.73535156 7.015625 C-140.93811999 11.7792019 -149.21687664 17.01128843 -156.875 24.0625 C-157.3915918 24.53671387 -157.90818359 25.01092773 -158.44042969 25.49951172 C-175.81889164 41.63518159 -186.29995029 60.32378641 -192.875 83.0625 C-193.1946875 84.08472656 -193.514375 85.10695313 -193.84375 86.16015625 C-201.56511356 115.00802844 -194.2158828 147.09385784 -179.9375 172.625 C-176.12751284 178.95031849 -171.83070117 184.59549633 -166.875 190.0625 C-166.43704102 190.54960449 -165.99908203 191.03670898 -165.54785156 191.53857422 C-148.34960867 210.42993982 -122.5392768 224.6246616 -96.875 227.0625 C-62.63152303 228.50154585 -32.03345294 222.77095374 -5.875 199.0625 C-4.89789063 198.17949219 -3.92078125 197.29648438 -2.9140625 196.38671875 C17.19275115 177.58474341 30.64081984 150.06002226 32.34619141 122.48608398 C32.46425822 118.63384021 32.50522614 114.79153953 32.5 110.9375 C32.49945618 110.25751953 32.49891235 109.57753906 32.49835205 108.87695312 C32.45785922 97.83698723 31.63387499 87.56492584 28.125 77.0625 C27.91601074 76.42538086 27.70702148 75.78826172 27.49169922 75.13183594 C22.63108605 60.80850095 15.07688656 47.43608464 5.125 36.0625 C4.53589844 35.3303125 3.94679687 34.598125 3.33984375 33.84375 C-9.57336577 18.27113215 -28.03424844 7.72988925 -46.875 1.0625 C-47.75671875 0.74539062 -48.6384375 0.42828125 -49.546875 0.1015625 C-74.56059728 -8.15460074 -106.48217653 -6.10937563 -129.875 6.0625 Z " fill="#253C7A" transform="translate(224.875,57.9375)"/>
<path d="M0 0 C6.37283398 4.81907636 9.87063329 10.61561706 11.73828125 18.42578125 C12.14349134 22.47788211 12.13214653 26.48251742 12.05078125 30.55078125 C11.63828125 29.99390625 11.22578125 29.43703125 10.80078125 28.86328125 C10.22328125 28.10015625 9.64578125 27.33703125 9.05078125 26.55078125 C8.53515625 25.74640625 8.01953125 24.94203125 7.48828125 24.11328125 C2.32247791 18.68256492 -3.67242394 16.24745652 -11.13671875 16.05078125 C-17.59290278 16.35703613 -21.5799098 17.66610367 -26.69921875 21.73828125 C-30.91571162 27.00889734 -32.56347792 32.5155058 -32.296875 39.26171875 C-31.16034618 46.74493099 -26.76853374 52.91909881 -21.94921875 58.55078125 C-21.11583984 59.52724609 -21.11583984 59.52724609 -20.265625 60.5234375 C-12.28664292 69.11248259 -2.36175708 75.65067359 7.05078125 82.55078125 C38.37601378 105.58423463 38.37601378 105.58423463 41.05078125 116.55078125 C41.86223558 123.11848975 40.85405179 128.1049388 37.05078125 133.55078125 C34.88708267 136.08553727 32.67215083 138.48467715 30.05078125 140.55078125 C29.39078125 140.55078125 28.73078125 140.55078125 28.05078125 140.55078125 C26.36328125 138.86328125 26.36328125 138.86328125 25.05078125 136.55078125 C25.23828125 134.30078125 25.23828125 134.30078125 26.05078125 131.55078125 C26.40922254 130.11434116 26.76317172 128.67677477 27.11328125 127.23828125 C27.42265625 126.02140625 27.73203125 124.80453125 28.05078125 123.55078125 C27.06078125 123.55078125 26.07078125 123.55078125 25.05078125 123.55078125 C24.39078125 126.85078125 23.73078125 130.15078125 23.05078125 133.55078125 C22.06078125 133.22078125 21.07078125 132.89078125 20.05078125 132.55078125 C19.1015625 129.828125 19.1015625 129.828125 18.36328125 126.48828125 C18.11191406 125.38355469 17.86054688 124.27882813 17.6015625 123.140625 C17.41980469 122.28597656 17.23804688 121.43132812 17.05078125 120.55078125 C16.72078125 120.55078125 16.39078125 120.55078125 16.05078125 120.55078125 C15.4585319 124.61191966 15.15360224 128.09286536 17.36328125 131.68359375 C19.17597307 133.74714917 21.05916898 135.65952153 23.05078125 137.55078125 C24.32390793 138.7984454 25.59485259 140.04834119 26.86328125 141.30078125 C27.42660156 141.831875 27.98992187 142.36296875 28.5703125 142.91015625 C32.14559664 146.87221255 32.64740461 150.74152937 32.578125 155.9375 C31.64193233 160.57685481 28.54237598 163.52525912 25.05078125 166.55078125 C24.39078125 166.88078125 23.73078125 167.21078125 23.05078125 167.55078125 C22.58326337 169.9067736 22.58326337 169.9067736 22.42578125 172.61328125 C22.35101563 173.53238281 22.27625 174.45148438 22.19921875 175.3984375 C22.12574219 176.46384766 22.12574219 176.46384766 22.05078125 177.55078125 C21.72078125 177.55078125 21.39078125 177.55078125 21.05078125 177.55078125 C21.025 176.77992188 20.99921875 176.0090625 20.97265625 175.21484375 C20.9159375 174.21195313 20.85921875 173.2090625 20.80078125 172.17578125 C20.754375 171.17804688 20.70796875 170.1803125 20.66015625 169.15234375 C20.34230938 166.42823207 20.34230938 166.42823207 18.171875 165.359375 C17.47191406 165.09253906 16.77195312 164.82570313 16.05078125 164.55078125 C11.8277736 160.52419256 10.26012727 157.52921961 9.9140625 151.67578125 C10.11363167 148.57390619 10.93643329 146.81094631 13.05078125 144.55078125 C14.37078125 144.55078125 15.69078125 144.55078125 17.05078125 144.55078125 C17.05078125 148.55078125 17.05078125 148.55078125 16.05078125 150.55078125 C15.81499575 152.59146759 15.81499575 152.59146759 15.80078125 154.86328125 C15.775 155.62253906 15.74921875 156.38179687 15.72265625 157.1640625 C15.97655786 160.16924321 15.97655786 160.16924321 19.05078125 164.55078125 C19.38078125 159.27078125 19.71078125 153.99078125 20.05078125 148.55078125 C21.04078125 148.88078125 22.03078125 149.21078125 23.05078125 149.55078125 C23.05078125 154.50078125 23.05078125 159.45078125 23.05078125 164.55078125 C23.71078125 164.55078125 24.37078125 164.55078125 25.05078125 164.55078125 C26.63402558 160.39476488 27.69887081 156.99482394 27.05078125 152.55078125 C23.71207114 147.97619502 20.34990718 145.1455447 15.55078125 142.05078125 C9.84863523 138.37369644 4.40358638 134.19323108 2.05078125 127.55078125 C1.75 124.7109375 1.75 124.7109375 1.73828125 121.61328125 C1.72152344 120.59363281 1.70476562 119.57398438 1.6875 118.5234375 C2.09583933 115.1820802 3.14070956 113.28737473 5.05078125 110.55078125 C5.77265625 110.86015625 6.49453125 111.16953125 7.23828125 111.48828125 C9.85385434 112.47638664 12.30197107 113.07955665 15.05078125 113.55078125 C15.54578125 112.06578125 15.54578125 112.06578125 16.05078125 110.55078125 C15.31988281 110.28523438 14.58898437 110.0196875 13.8359375 109.74609375 C11.06303887 108.55604189 8.92289993 107.19716201 6.48828125 105.42578125 C2.80436675 102.78664014 -0.91383379 100.22986307 -4.69921875 97.73828125 C-16.21989069 90.05783329 -27.066512 82.28984401 -36.94921875 72.55078125 C-37.71234375 71.80054688 -38.47546875 71.0503125 -39.26171875 70.27734375 C-44.57014086 64.70752206 -47.92867732 58.59871126 -50.94921875 51.55078125 C-51.21919678 50.94363281 -51.4891748 50.33648437 -51.76733398 49.7109375 C-53.88131581 44.63085533 -54.46068816 40.15538802 -54.38671875 34.67578125 C-54.37914551 33.8863916 -54.37157227 33.09700195 -54.36376953 32.28369141 C-54.06005509 21.50737083 -49.79490061 13.49274493 -42.2890625 5.86328125 C-31.29901278 -4.15043148 -13.22998579 -7.89352093 0 0 Z " fill="#283474" transform="translate(121.94921875,98.44921875)"/>
<path d="M0 0 C1.31556885 0.00491455 2.6311377 0.0098291 3.98657227 0.01489258 C13.4106949 0.12856264 22.0372918 0.76628563 31.125 3.3125 C32.91550781 3.78816406 32.91550781 3.78816406 34.7421875 4.2734375 C50.88247733 9.08481354 65.29483841 17.51409421 78.125 28.3125 C78.81851563 28.86679688 79.51203125 29.42109375 80.2265625 29.9921875 C101.84840059 47.61350929 117.50316883 77.84839507 120.35977173 105.59268188 C120.66276861 110.20045227 120.69669674 114.79814913 120.64648438 119.41430664 C120.62503067 121.74666567 120.64643653 124.07593585 120.671875 126.40820312 C120.69953369 141.70225768 117.40187113 155.99758363 112.125 170.3125 C111.465 170.3125 110.805 170.3125 110.125 170.3125 C110.0425 170.993125 109.96 171.67375 109.875 172.375 C109.06361485 175.55292517 107.78929413 177.81242758 106.11328125 180.59765625 C104.87213112 182.75127249 103.97333091 184.97958999 103.125 187.3125 C102.465 187.3125 101.805 187.3125 101.125 187.3125 C100.856875 187.84875 100.58875 188.385 100.3125 188.9375 C99.920625 189.72125 99.52875 190.505 99.125 191.3125 C98.691875 192.281875 98.25875 193.25125 97.8125 194.25 C95.95523944 197.62058399 93.87659609 199.62706676 91.125 202.3125 C90.18622017 203.30232029 89.2514469 204.29595295 88.3203125 205.29296875 C80.66419093 213.35830113 72.66375307 219.6228475 63.125 225.3125 C62.52993652 225.67714355 61.93487305 226.04178711 61.32177734 226.41748047 C34.28350875 242.81263153 0.40443058 246.02927154 -29.99658203 238.80859375 C-51.27103294 233.30526274 -69.09050973 222.43585979 -84.875 207.3125 C-85.93654297 206.32830078 -85.93654297 206.32830078 -87.01953125 205.32421875 C-108.05655823 185.25256203 -119.05196275 153.97603985 -120.15625 125.375 C-120.42935101 113.40881371 -119.82294001 101.92926816 -116.875 90.3125 C-116.68695801 89.55662598 -116.49891602 88.80075195 -116.30517578 88.02197266 C-113.42112923 76.85059426 -109.11691592 67.395095 -102.94921875 57.65625 C-100.80455742 54.48678205 -100.80455742 54.48678205 -99.875 51.3125 C-99.215 51.3125 -98.555 51.3125 -97.875 51.3125 C-96.66871992 48.98035852 -95.7095262 46.81607861 -94.875 44.3125 C-94.153125 43.755625 -93.43125 43.19875 -92.6875 42.625 C-89.5384675 40.0357955 -87.51202012 37.25468212 -85.20703125 33.921875 C-84.76746094 33.39078125 -84.32789063 32.8596875 -83.875 32.3125 C-83.215 32.3125 -82.555 32.3125 -81.875 32.3125 C-81.875 31.6525 -81.875 30.9925 -81.875 30.3125 C-79.8203125 28.61328125 -79.8203125 28.61328125 -77 26.625 C-75.98550781 25.90957031 -74.97101563 25.19414063 -73.92578125 24.45703125 C-72.91902344 23.74933594 -71.91226563 23.04164062 -70.875 22.3125 C-70.08480469 21.71824219 -69.29460937 21.12398437 -68.48046875 20.51171875 C-48.18232896 5.46965605 -25.00988457 -0.11118369 0 0 Z M-47.875 15.3125 C-48.48891602 15.62703125 -49.10283203 15.9415625 -49.73535156 16.265625 C-58.93811999 21.0292019 -67.21687664 26.26128843 -74.875 33.3125 C-75.3915918 33.78671387 -75.90818359 34.26092773 -76.44042969 34.74951172 C-93.81889164 50.88518159 -104.29995029 69.57378641 -110.875 92.3125 C-111.1946875 93.33472656 -111.514375 94.35695313 -111.84375 95.41015625 C-119.56511356 124.25802844 -112.2158828 156.34385784 -97.9375 181.875 C-94.12751284 188.20031849 -89.83070117 193.84549633 -84.875 199.3125 C-84.43704102 199.79960449 -83.99908203 200.28670898 -83.54785156 200.78857422 C-66.34960867 219.67993982 -40.5392768 233.8746616 -14.875 236.3125 C19.36847697 237.75154585 49.96654706 232.02095374 76.125 208.3125 C77.10210937 207.42949219 78.07921875 206.54648438 79.0859375 205.63671875 C99.19275115 186.83474341 112.64081984 159.31002226 114.34619141 131.73608398 C114.46425822 127.88384021 114.50522614 124.04153953 114.5 120.1875 C114.49945618 119.50751953 114.49891235 118.82753906 114.49835205 118.12695312 C114.45785922 107.08698723 113.63387499 96.81492584 110.125 86.3125 C109.91601074 85.67538086 109.70702148 85.03826172 109.49169922 84.38183594 C104.63108605 70.05850095 97.07688656 56.68608464 87.125 45.3125 C86.53589844 44.5803125 85.94679687 43.848125 85.33984375 43.09375 C72.42663423 27.52113215 53.96575156 16.97988925 35.125 10.3125 C34.24328125 9.99539062 33.3615625 9.67828125 32.453125 9.3515625 C7.43940272 1.09539926 -24.48217653 3.14062437 -47.875 15.3125 Z " fill="#2679A5" transform="translate(142.875,48.6875)"/>
<path d="M0 0 C10.22660127 5.59538926 16.43208855 13.10333279 20.40234375 24.0078125 C23.4975954 35.88537457 22.31416035 47.57242849 16.52734375 58.3828125 C14.06065618 62.22693748 11.39242535 65.82851644 8.52734375 69.3828125 C7.85574219 70.24648437 7.18414062 71.11015625 6.4921875 72 C-2.1978365 82.53859769 -14.99844257 90.77383673 -26.09765625 98.6328125 C-26.77248047 99.12297852 -27.44730469 99.61314453 -28.14257812 100.11816406 C-32.92926224 103.44561131 -32.92926224 103.44561131 -35.52392578 103.14575195 C-38.61354421 101.93614815 -40.44389696 99.68902281 -42.72265625 97.3203125 C-44.06070313 95.94166016 -44.06070313 95.94166016 -45.42578125 94.53515625 C-46.10125 93.82488281 -46.77671875 93.11460937 -47.47265625 92.3828125 C-46.04059089 88.9233605 -44.37720635 87.27573187 -41.359375 85.09765625 C-40.52954102 84.49010498 -39.69970703 83.88255371 -38.84472656 83.2565918 C-37.95881836 82.61761963 -37.07291016 81.97864746 -36.16015625 81.3203125 C-13.89594403 65.96619442 -13.89594403 65.96619442 -0.47265625 43.3828125 C0.50508884 36.27379094 -0.15625429 30.24459294 -4.47265625 24.3828125 C-9.17064016 19.20975157 -14.38161954 17.35149905 -21.22265625 16.9453125 C-27.09800011 17.09573546 -31.72794616 18.94473514 -36.47265625 22.3828125 C-38.34134396 24.43344141 -39.89932542 26.48714116 -41.4140625 28.80859375 C-41.93806641 29.58783203 -41.93806641 29.58783203 -42.47265625 30.3828125 C-42.80265625 30.3828125 -43.13265625 30.3828125 -43.47265625 30.3828125 C-44.31679053 20.69090037 -43.17861729 13.429062 -37.47265625 5.3828125 C-27.64526671 -4.48289045 -12.47228486 -5.36402026 0 0 Z " fill="#1B8AB2" transform="translate(196.47265625,97.6171875)"/>
<path d="M0 0 C6.00764258 3.6229295 10.30856303 8.25077106 12.89453125 14.828125 C15.07341333 23.73590762 14.66922314 32.57226607 9.98046875 40.52734375 C4.71482434 47.99182869 -2.55877179 52.65217826 -11.44140625 54.54296875 C-20.7057028 55.58066998 -28.19477373 54.18041047 -35.88671875 48.84765625 C-42.35557924 43.57436073 -46.78750835 37.76145491 -47.84375 29.33203125 C-48.09867367 20.58305087 -46.92281922 13.36040503 -41.50390625 6.35546875 C-30.30131264 -5.29056085 -14.23574889 -6.89574268 0 0 Z " fill="#228EB7" transform="translate(631.44140625,128.45703125)"/>
<path d="M0 0 C7.8890625 -0.0928125 7.8890625 -0.0928125 15.9375 -0.1875 C17.578396 -0.21481201 19.21929199 -0.24212402 20.90991211 -0.27026367 C31.17384006 -0.32863494 39.6406815 0.3125452 48 7 C54.238861 13.26878359 56.39556177 18.35540288 56.375 27.3125 C56.34976082 35.51088167 55.16542837 40.21907166 49.75 46.6875 C41.91521315 53.27584349 34.73918568 56.2790296 24.31640625 56.1953125 C22.39356812 56.18781982 22.39356812 56.18781982 20.43188477 56.18017578 C18.82498779 56.16196777 17.21809082 56.14375977 15.5625 56.125 C10.426875 56.08375 5.29125 56.0425 0 56 C0 37.52 0 19.04 0 0 Z " fill="#259DC3" transform="translate(439,126)"/>
<path d="M0 0 C3.64086371 2.56727569 6.12729552 5.49287228 8.1328125 9.50390625 C8.1328125 5.87390625 8.1328125 2.24390625 8.1328125 -1.49609375 C9.4528125 -1.16609375 10.7728125 -0.83609375 12.1328125 -0.49609375 C12.14232437 0.31965622 12.15183624 1.13540619 12.16163635 1.97587585 C12.25749518 9.67180283 12.38645436 17.36613104 12.55243015 25.06083965 C12.63659527 29.0166956 12.70803692 32.97192306 12.75024414 36.9284668 C12.7914661 40.74849444 12.86631442 44.56652935 12.96430779 48.38550758 C12.99577777 49.84090161 13.0152188 51.29660811 13.02231026 52.75232506 C12.78293351 60.57521805 12.78293351 60.57521805 15.65914917 67.53652954 C18.46252452 69.65124012 20.62243369 70.50390625 24.1328125 70.50390625 C25.51953125 72.03515625 25.51953125 72.03515625 26.8203125 74.00390625 C27.25730469 74.65359375 27.69429687 75.30328125 28.14453125 75.97265625 C28.47066406 76.47796875 28.79679687 76.98328125 29.1328125 77.50390625 C27.6478125 77.99890625 27.6478125 77.99890625 26.1328125 78.50390625 C25.8028125 79.16390625 25.4728125 79.82390625 25.1328125 80.50390625 C24.21242187 79.75367188 23.29203125 79.0034375 22.34375 78.23046875 C16.03923787 73.12217585 9.7130524 68.10469119 3.0703125 63.44140625 C-27.36687325 41.98187891 -27.36687325 41.98187891 -33.8671875 27.50390625 C-34.3003125 26.67890625 -34.7334375 25.85390625 -35.1796875 25.00390625 C-37.06065969 18.16400739 -36.07132251 11.76155454 -32.8671875 5.50390625 C-25.40293321 -5.69247518 -11.07462249 -6.24950562 0 0 Z " fill="#FBFBFC" transform="translate(124.8671875,117.49609375)"/>
<path d="M0 0 C4.29 0 8.58 0 13 0 C13.79664063 1.39992188 14.59328125 2.79984375 15.4140625 4.2421875 C16.48431603 6.11982528 17.55463187 7.99742754 18.625 9.875 C19.14707031 10.7928125 19.66914063 11.710625 20.20703125 12.65625 C23.72356905 18.82104466 27.32233896 24.92996188 31 31 C33.90956402 27.53095032 36.23415431 24.0411457 38.41796875 20.078125 C39.03220703 18.97082031 39.64644531 17.86351562 40.27929688 16.72265625 C41.22385742 15.00369141 41.22385742 15.00369141 42.1875 13.25 C43.44951904 10.96225485 44.71466799 8.67628424 45.98046875 6.390625 C46.53629639 5.38032227 47.09212402 4.37001953 47.66479492 3.32910156 C49 1 49 1 50 0 C54.29 0 58.58 0 63 0 C63 18.48 63 36.96 63 56 C58.71 56 54.42 56 50 56 C49.67 45.77 49.34 35.54 49 25 C45.13931305 32.10425769 45.13931305 32.10425769 41.28173828 39.21020508 C40.55833252 40.53894653 40.55833252 40.53894653 39.8203125 41.89453125 C39.32805176 42.80050049 38.83579102 43.70646973 38.32861328 44.63989258 C37.29688304 46.47262618 36.16663616 48.25004576 35 50 C33.0546875 50.29296875 33.0546875 50.29296875 30.875 50.1875 C29.59625 50.125625 28.3175 50.06375 27 50 C24.99321599 46.37871557 22.9957352 42.75238357 21 39.125 C20.42765625 38.09246094 19.8553125 37.05992187 19.265625 35.99609375 C18.72421875 35.00996094 18.1828125 34.02382812 17.625 33.0078125 C17.12226563 32.09660645 16.61953125 31.18540039 16.1015625 30.24658203 C15 28 15 28 15 26 C14.34 26 13.68 26 13 26 C13 35.57 13 45.14 13 55 C8.71 55 4.42 55 0 55 C0 36.85 0 18.7 0 0 Z " fill="#252D70" transform="translate(309,126)"/>
<path d="M0 0 C14.19 0 28.38 0 43 0 C43 3.63 43 7.26 43 11 C33.43 11 23.86 11 14 11 C14 14.63 14 18.26 14 22 C22.58 22 31.16 22 40 22 C40 25.63 40 29.26 40 33 C31.42 33 22.84 33 14 33 C14 36.63 14 40.26 14 44 C24.23 44 34.46 44 45 44 C45 47.96 45 51.92 45 56 C30.15 56 15.3 56 0 56 C0 37.52 0 19.04 0 0 Z " fill="#263275" transform="translate(385,126)"/>
<path d="M0 0 C0.76570312 0.49757812 1.53140625 0.99515625 2.3203125 1.5078125 C3.49207031 2.24644531 3.49207031 2.24644531 4.6875 3 C5.55761719 3.80824219 5.55761719 3.80824219 6.4453125 4.6328125 C6.4453125 8.6328125 6.4453125 8.6328125 4.9140625 10.3359375 C3.93953125 11.10164062 3.93953125 11.10164062 2.9453125 11.8828125 C2.295625 12.40359375 1.6459375 12.924375 0.9765625 13.4609375 C0.47125 13.84765625 -0.0340625 14.234375 -0.5546875 14.6328125 C-3.24701209 13.63280622 -5.50769607 12.66583351 -7.8671875 11.0078125 C-12.8522346 8.45732329 -17.16120522 9.21476782 -22.3046875 10.7578125 C-26.29500079 13.05991632 -27.69547617 14.39381066 -29.5546875 18.6328125 C-30.33200117 25.07214959 -30.48983112 31.20502819 -26.5546875 36.6328125 C-24.17816736 39.54596622 -22.5062042 40.51387291 -18.7734375 40.98046875 C-13.04629662 41.1434938 -8.39680466 41.03538132 -3.5546875 37.6328125 C-3.0596875 36.6428125 -3.0596875 36.6428125 -2.5546875 35.6328125 C0.65575132 37.01469703 2.49467615 38.55703153 4.6953125 41.2578125 C5.21609375 41.88945312 5.736875 42.52109375 6.2734375 43.171875 C6.85351562 43.89503906 6.85351562 43.89503906 7.4453125 44.6328125 C0.42267057 51.35012218 -6.20849619 54.78529987 -16.0546875 55.1328125 C-24.34650694 54.84016005 -31.85738871 52.36883818 -37.94921875 46.56640625 C-44.34277874 38.86613327 -46.52337116 31.1188707 -46.06640625 21.1875 C-44.88611539 12.98853296 -41.18163064 7.19277901 -34.69921875 2.10546875 C-24.32231567 -5.02038273 -11.2960274 -6.0452746 0 0 Z " fill="#27A0C6" transform="translate(573.5546875,128.3671875)"/>
<path d="M0 0 C18.05487665 -1.00802661 18.05487665 -1.00802661 26 5 C31.96945082 10.35850489 35.19936955 16.99369554 36 25 C36.06913121 28.00226988 36.06004623 30.9976885 36 34 C35.5875 33.443125 35.175 32.88625 34.75 32.3125 C34.1725 31.549375 33.595 30.78625 33 30 C32.484375 29.195625 31.96875 28.39125 31.4375 27.5625 C26.27169666 22.13178367 20.27679481 19.69667527 12.8125 19.5 C6.35631597 19.80625488 2.36930895 21.11532242 -2.75 25.1875 C-6.97362973 30.46703717 -8.57026377 35.93915108 -8.37109375 42.6875 C-7.81646725 46.14369884 -6.45183552 49.04794882 -4.875 52.15234375 C-4 54 -4 54 -4 56 C-8.69602769 55.4574665 -12.12135554 53.34439291 -16 50.8125 C-16.60328125 50.43802734 -17.2065625 50.06355469 -17.828125 49.67773438 C-22.06197849 46.94873968 -25.03954975 44.09060351 -28 40 C-29.39820582 32.07683371 -25.37955339 23.86179859 -21.25 17.25 C-14.9482987 8.4871865 -8.38146319 4.78569262 2 2 C1.34 1.34 0.68 0.68 0 0 Z " fill="#214C8B" transform="translate(98,95)"/>
<path d="M0 0 C1.093125 0.00257812 2.18625 0.00515625 3.3125 0.0078125 C4.405625 0.00523438 5.49875 0.00265625 6.625 0 C9.3125 0.1328125 9.3125 0.1328125 10.3125 1.1328125 C10.41253119 2.67838875 10.44331127 4.22853512 10.4453125 5.77734375 C10.44724609 7.26137695 10.44724609 7.26137695 10.44921875 8.77539062 C10.44535156 9.82146484 10.44148437 10.86753906 10.4375 11.9453125 C10.44136719 12.91791016 10.44523438 13.89050781 10.44921875 14.89257812 C10.44088832 21.44446145 10.19201412 27.96361652 9.83984375 34.50390625 C9.23356297 45.79243756 8.97974354 57.08130571 8.75 68.3828125 C8.70664026 70.41146391 8.66302163 72.4401098 8.61914062 74.46875 C8.51395875 79.35671274 8.41222395 84.24473549 8.3125 89.1328125 C6.95899406 88.50811745 5.6316582 87.82710629 4.3125 87.1328125 C3.2611084 86.72579102 2.2097168 86.31876953 1.12646484 85.89941406 C-3.6203171 81.23252763 -2.65474892 75.21540645 -2.7109375 68.8671875 C-2.74469128 67.43143697 -2.78099979 65.99574446 -2.81973267 64.56011963 C-2.91482707 60.77216151 -2.97429201 56.98443633 -3.02661133 53.19567871 C-3.08553711 49.39817275 -3.17935483 45.60155576 -3.26953125 41.8046875 C-3.45616308 33.58114093 -3.60371785 25.35816658 -3.6875 17.1328125 C-3.69578072 16.39799149 -3.70406143 15.66317047 -3.71259308 14.90608215 C-3.73563047 12.67208975 -3.75106039 10.4381722 -3.76416016 8.20410156 C-3.771695 7.51053432 -3.77922985 6.81696709 -3.78699303 6.10238266 C-3.79225544 4.44553568 -3.74502895 2.78866878 -3.6875 1.1328125 C-2.6875 0.1328125 -2.6875 0.1328125 0 0 Z " fill="#224F8B" transform="translate(139.6875,99.8671875)"/>
<path d="M0 0 C3.94167341 3.56627594 6.3263543 5.98278697 7.0078125 11.44140625 C7.17997243 16.48569234 7.11128626 20.30891089 5 24.9375 C0.58993346 29.46362092 -2.48492554 31.61488842 -8.875 31.875 C-13.77457754 31.68860303 -16.65041458 30.72712688 -20.375 27.375 C-24.70819201 22.44412634 -24.7248607 17.65970164 -24.6484375 11.32421875 C-24.2736381 7.28173951 -23.20339116 5.27591401 -20.375 2.375 C-14.02878675 -2.44812207 -7.3220701 -3.52544116 0 0 Z " fill="#F7FAFA" transform="translate(623.375,138.625)"/>
<path d="M0 0 C4.95 0 9.9 0 15 0 C15 18.48 15 36.96 15 56 C10.05 56 5.1 56 0 56 C0 37.52 0 19.04 0 0 Z " fill="#29A1C5" transform="translate(504,126)"/>
<path d="M0 0 C1.0828125 0.4640625 1.0828125 0.4640625 2.1875 0.9375 C4.83966667 1.93942963 7.1817377 2.69532299 10 3 C10.66 2.34 11.32 1.68 12 1 C20.81548975 8.11389522 20.81548975 8.11389522 22 13 C21.34 13 20.68 13 20 13 C19.34 16.3 18.68 19.6 18 23 C17.01 22.67 16.02 22.34 15 22 C14.05078125 19.27734375 14.05078125 19.27734375 13.3125 15.9375 C13.06113281 14.83277344 12.80976563 13.72804687 12.55078125 12.58984375 C12.36902344 11.73519531 12.18726563 10.88054687 12 10 C11.67 10 11.34 10 11 10 C10.40775065 14.06113841 10.10282099 17.54208411 12.3125 21.1328125 C14.12519182 23.19636792 16.00838773 25.10874028 18 27 C19.27312668 28.24766415 20.54407134 29.49755994 21.8125 30.75 C22.37582031 31.28109375 22.93914062 31.8121875 23.51953125 32.359375 C27.09481539 36.3214313 27.59662336 40.19074812 27.52734375 45.38671875 C26.59115108 50.02607356 23.49159473 52.97447787 20 56 C19.01 56.495 19.01 56.495 18 57 C17.53248212 59.35599235 17.53248212 59.35599235 17.375 62.0625 C17.30023438 62.98160156 17.22546875 63.90070313 17.1484375 64.84765625 C17.09945312 65.55792969 17.05046875 66.26820313 17 67 C16.67 67 16.34 67 16 67 C15.97421875 66.22914063 15.9484375 65.45828125 15.921875 64.6640625 C15.86515625 63.66117187 15.8084375 62.65828125 15.75 61.625 C15.70359375 60.62726563 15.6571875 59.62953125 15.609375 58.6015625 C15.29152813 55.87745082 15.29152813 55.87745082 13.12109375 54.80859375 C12.42113281 54.54175781 11.72117188 54.27492188 11 54 C6.77699235 49.97341131 5.20934602 46.97843836 4.86328125 41.125 C5.06285042 38.02312494 5.88565204 36.26016506 8 34 C9.32 34 10.64 34 12 34 C12 38 12 38 11 40 C10.7642145 42.04068634 10.7642145 42.04068634 10.75 44.3125 C10.72421875 45.07175781 10.6984375 45.83101562 10.671875 46.61328125 C10.92577661 49.61846196 10.92577661 49.61846196 14 54 C14.33 48.72 14.66 43.44 15 38 C16.485 38.495 16.485 38.495 18 39 C18 43.95 18 48.9 18 54 C18.66 54 19.32 54 20 54 C21.58324433 49.84398363 22.64808956 46.44404269 22 42 C18.66128989 37.42541377 15.29912593 34.59476345 10.5 31.5 C4.79785398 27.82291519 -0.64719487 23.64244983 -3 17 C-3.30078125 14.16015625 -3.30078125 14.16015625 -3.3125 11.0625 C-3.32925781 10.04285156 -3.34601563 9.02320313 -3.36328125 7.97265625 C-2.95494192 4.63129895 -1.91007169 2.73659348 0 0 Z " fill="#1F99BC" transform="translate(127,209)"/>
<path d="M0 0 C18.13109331 0 18.13109331 0 22.58203125 3.52734375 C26.23809087 7.32440842 27.18048539 10.79720778 27.4375 15.9375 C27.2508686 21.108745 26.19034303 23.90981663 23 28 C15.87405137 34.31618174 10.55000031 32 0 32 C0 21.44 0 10.88 0 0 Z " fill="#F8FBFA" transform="translate(454,138)"/>
<path d="M0 0 C4.40830916 2.16407904 7.12843553 4.42506462 9 9 C9.53580592 14.6259622 9.18905893 18.16142783 6 23 C2.52298491 26.78381054 -0.73231335 27.81060746 -5.71875 28.16796875 C-10.4564677 27.81912995 -13.70505312 25.42444156 -16.875 21.9375 C-19.19800012 17.93677757 -19.38557339 14.54976602 -19 10 C-14.52037036 1.53847735 -9.40690802 -1.49244214 0 0 Z " fill="#273B79" transform="translate(148,68)"/>
<path d="M0 0 C0.33 0 0.66 0 1 0 C1.84305148 33.79015189 1.84305148 33.79015189 -3 50 C-3.21430664 50.74991211 -3.42861328 51.49982422 -3.64941406 52.27246094 C-9.78770147 73.43927735 -20.14629763 92.81329638 -35.61914062 108.57958984 C-36.95354716 109.95221665 -38.25105162 111.3604227 -39.546875 112.76953125 C-48.89057464 122.66535859 -62.78372522 134.82149749 -76 139 C-78.29296875 138.1328125 -78.29296875 138.1328125 -80 137 C-79.34 137 -78.68 137 -78 137 C-78 136.34 -78 135.68 -78 135 C-76.99582031 134.46632813 -75.99164063 133.93265625 -74.95703125 133.3828125 C-63.01121467 126.91962371 -52.50835351 119.76533603 -43 110 C-42.34 110 -41.68 110 -41 110 C-40.66935547 109.18595703 -40.66935547 109.18595703 -40.33203125 108.35546875 C-38.56774111 105.23562431 -36.16241402 102.86706549 -33.6875 100.3125 C-29.80650482 96.19407186 -26.635064 92.29095626 -24.1015625 87.1875 C-22.901011 84.80342611 -21.50337179 82.62128217 -20.0625 80.375 C-16.5628532 74.59023678 -14.12827381 68.4236628 -11.78735352 62.09985352 C-11.21608323 60.57628894 -10.61941884 59.06216937 -10.00756836 57.55444336 C-7.15463203 50.27789764 -5.83863492 43.16598452 -4.8125 35.4375 C-4.64814453 34.28314453 -4.48378906 33.12878906 -4.31445312 31.93945312 C-3.46926056 25.90676288 -2.74785388 19.88455366 -2.25268555 13.81274414 C-2 12 -2 12 -1 11 C-0.76636119 9.15108054 -0.58696365 7.29511969 -0.4375 5.4375 C-0.31181641 3.91962891 -0.31181641 3.91962891 -0.18359375 2.37109375 C-0.12300781 1.58863281 -0.06242187 0.80617187 0 0 Z " fill="#2694BC" transform="translate(279,156)"/>
<path d="M0 0 C0.495 1.98 0.495 1.98 1 4 C-0.28970703 4.87398437 -0.28970703 4.87398437 -1.60546875 5.765625 C-23.70734367 20.98056957 -47.63350976 45.21376451 -53.54296875 72.5078125 C-53.76919922 73.74144531 -53.76919922 73.74144531 -54 75 C-54.60832395 76.94280036 -55.23494212 78.87992215 -55.875 80.8125 C-60.93762466 97.30271585 -61.95236949 113.86174298 -63 131 C-63.99 131 -64.98 131 -66 131 C-66.93656165 89.66641234 -56.20017376 53.90525016 -28 23 C-27.13632812 22.05253906 -26.27265625 21.10507813 -25.3828125 20.12890625 C-18.13107484 12.54363169 -9.45801059 4.72900529 0 0 Z " fill="#2D73A6" transform="translate(72,51)"/>
<path d="M0 0 C0 0.99 0 1.98 0 3 C1.32 3.33 2.64 3.66 4 4 C2.92363281 4.53367187 1.84726563 5.06734375 0.73828125 5.6171875 C-13.50361841 12.82249131 -25.01450093 21.34495584 -36 33 C-37.32 32.34 -38.64 31.68 -40 31 C-41.65 32.32 -43.3 33.64 -45 35 C-43.51516897 31.76306836 -41.67292565 29.0674375 -39.5 26.25 C-38.8915625 25.45078125 -38.283125 24.6515625 -37.65625 23.828125 C-37.1096875 23.22484375 -36.563125 22.6215625 -36 22 C-35.34 22 -34.68 22 -34 22 C-34 21.34 -34 20.68 -34 20 C-31.9453125 18.30078125 -31.9453125 18.30078125 -29.125 16.3125 C-28.11824219 15.6009375 -27.11148438 14.889375 -26.07421875 14.15625 C-25.05972656 13.4446875 -24.04523438 12.733125 -23 12 C-22.14019531 11.3709375 -21.28039062 10.741875 -20.39453125 10.09375 C-6.47135417 0 -6.47135417 0 0 0 Z " fill="#2AA5C2" transform="translate(95,59)"/>
<path d="M0 0 C3.71145701 2.14439738 4.79258914 3.28702516 6 7.4375 C6 11.4184894 5.5177436 12.96134393 3 16 C-0.21522137 18.32826375 -3.10830425 18.39711181 -7 18 C-11.63235294 15.73529412 -11.63235294 15.73529412 -13 13 C-13.51571681 8.62063431 -13.83341277 5.14953485 -11.1875 1.5 C-7.19254375 -1.23939857 -4.58676056 -1.19255774 0 0 Z " fill="#39A0BF" transform="translate(523,195)"/>
<path d="M0 0 C3.48013372 0.7111304 5.00816094 1.59521891 7.16015625 4.44140625 C7.93037955 7.61709616 7.95609716 10.26893254 7.16015625 13.44140625 C5.38623924 16.06898298 4.0381825 16.78920599 1.16015625 18.44140625 C-2.49198614 19.0376744 -4.25743973 18.7193718 -7.58984375 17.12890625 C-10.52415237 14.92817479 -11.71077745 13.27111821 -12.27734375 9.62890625 C-11.80921953 6.21828694 -10.88442475 4.12962784 -8.53125 1.58203125 C-5.75720621 -0.2886865 -3.26710634 -0.25635058 0 0 Z " fill="#279DBE" transform="translate(600.83984375,194.55859375)"/>
<path d="M0 0 C0.495 1.98 0.495 1.98 1 4 C0.14019531 4.58265625 -0.71960938 5.1653125 -1.60546875 5.765625 C-20.0901512 18.490492 -34.08755219 33.68160075 -45.19824219 53.2668457 C-46.88159464 56.23249724 -48.48424364 58.69264949 -51 61 C-51.33 61.66 -51.66 62.32 -52 63 C-52.66 63 -53.32 63 -54 63 C-48.83816874 45.82848093 -36.10818457 31.74153576 -24 19 C-23.43023437 18.36578125 -22.86046875 17.7315625 -22.2734375 17.078125 C-16.24452913 10.58545445 -7.92620769 3.96310384 0 0 Z " fill="#2CAAC7" transform="translate(72,51)"/>
<path d="M0 0 C11.46634481 -0.36988209 11.46634481 -0.36988209 13.87109375 1.296875 C15.72913144 4.10000452 15.22907026 6.73574878 15 10 C14.70955086 11.34332728 14.39044206 12.68225804 14 14 C14 14.66 14 15.32 14 16 C14.66 16 15.32 16 16 16 C16 16.66 16 17.32 16 18 C13.6875 18.25 13.6875 18.25 11 18 C9.95374591 16.70264493 8.95298777 15.36733028 8 14 C5.90584196 13.20376178 5.90584196 13.20376178 4 13 C4 14.32 4 15.64 4 17 C2.68 17 1.36 17 0 17 C0 11.39 0 5.78 0 0 Z " fill="#1A93B5" transform="translate(451,195)"/>
<path d="M0 0 C0.33 0 0.66 0 1 0 C1.42684459 17.1082595 1.76544359 33.41288527 -3 50 C-3.40220473 51.54396832 -3.80323245 53.0882437 -4.203125 54.6328125 C-4.61005543 56.11062927 -5.02133756 57.58725643 -5.4375 59.0625 C-5.61821045 59.73659912 -5.7989209 60.41069824 -5.98510742 61.10522461 C-7.0010367 64.41337406 -7.55383544 65.75955596 -10.66015625 67.43359375 C-11.43230469 67.62050781 -12.20445312 67.80742187 -13 68 C-12.36631923 64.1700613 -11.17904934 60.94917705 -9.6875 57.375 C-4.66129497 43.65127496 -3.44496167 28.31719314 -2.25488281 13.81933594 C-2 12 -2 12 -1 11 C-0.76636119 9.15108054 -0.58696365 7.29511969 -0.4375 5.4375 C-0.35371094 4.42558594 -0.26992188 3.41367188 -0.18359375 2.37109375 C-0.12300781 1.58863281 -0.06242187 0.80617187 0 0 Z " fill="#315F98" transform="translate(279,156)"/>
<path d="M0 0 C1.79317423 4.43019517 2.33862005 7.3663152 1 12 C-0.1875 13.875 -0.1875 13.875 -2 15 C-5.86893019 15.41158832 -8.78801186 15.29427725 -12 13 C-14.53649298 9.57573447 -14.30622657 6.13405874 -14 2 C-9.82769799 -2.17230201 -5.41860283 -0.81279043 0 0 Z " fill="#20548F" transform="translate(149,75)"/>
<path d="M0 0 C1.65 0 3.3 0 5 0 C5 2.31 5 4.62 5 7 C7.31 7 9.62 7 12 7 C12 4.69 12 2.38 12 0 C13.32 0 14.64 0 16 0 C16 5.94 16 11.88 16 18 C14.68 18 13.36 18 12 18 C12 15.69 12 13.38 12 11 C9.69 11 7.38 11 5 11 C5 13.31 5 15.62 5 18 C3.35 18 1.7 18 0 18 C0 12.06 0 6.12 0 0 Z " fill="#48A8C2" transform="translate(393,195)"/>
<path d="M0 0 C5.625 1.125 5.625 1.125 8.3125 5.0625 C8.82425781 5.79597656 9.33601562 6.52945313 9.86328125 7.28515625 C10.23839844 7.85105469 10.61351562 8.41695312 11 9 C11.33 6.03 11.66 3.06 12 0 C13.32 0 14.64 0 16 0 C16 5.61 16 11.22 16 17 C10.375 15.875 10.375 15.875 7.6875 11.9375 C7.17574219 11.20402344 6.66398438 10.47054687 6.13671875 9.71484375 C5.76160156 9.14894531 5.38648438 8.58304688 5 8 C4.67 10.97 4.34 13.94 4 17 C2.68 17 1.36 17 0 17 C0 11.39 0 5.78 0 0 Z " fill="#249BB9" transform="translate(612,195)"/>
<path d="M0 0 C1.65 0 3.3 0 5 0 C6.17407021 2.26727333 7.33939739 4.53834624 8.5 6.8125 C9.00080078 7.77639648 9.00080078 7.77639648 9.51171875 8.75976562 C11.00239084 11.69547699 12 13.66126517 12 17 C10.68 17 9.36 17 8 17 C7.67 16.34 7.34 15.68 7 15 C4.87423218 14.53348793 4.87423218 14.53348793 2.4375 14.375 C1.61121094 14.30023438 0.78492188 14.22546875 -0.06640625 14.1484375 C-0.70449219 14.09945312 -1.34257812 14.05046875 -2 14 C-2 15.32 -2 16.64 -2 18 C-3.65 18 -5.3 18 -7 18 C-5.06375702 11.79522136 -2.74390859 5.89174281 0 0 Z " fill="#1B90B2" transform="translate(350,195)"/>
<path d="M0 0 C1.65 0 3.3 0 5 0 C6.00936536 2.078812 7.00717846 4.1632362 8 6.25 C8.556875 7.41015625 9.11375 8.5703125 9.6875 9.765625 C11 13 11 13 11 17 C9.68 16.67 8.36 16.34 7 16 C7 15.34 7 14.68 7 14 C5.5199159 14.11362262 4.04089926 14.24122908 2.5625 14.375 C1.73878906 14.44460937 0.91507812 14.51421875 0.06640625 14.5859375 C-0.61550781 14.72257813 -1.29742187 14.85921875 -2 15 C-2.33 15.66 -2.66 16.32 -3 17 C-4.32 17 -5.64 17 -7 17 C-5.1668733 11.00067626 -2.92678249 5.55079437 0 0 Z " fill="#2599BA" transform="translate(437,195)"/>
<path d="M0 0 C1.65 0 3.3 0 5 0 C5.33 4.62 5.66 9.24 6 14 C7.65 13.34 9.3 12.68 11 12 C11.33 8.04 11.66 4.08 12 0 C13.32 0 14.64 0 16 0 C16.77674073 11.78919827 16.77674073 11.78919827 13.875 16.3125 C10.42795386 18.33576621 8.91486569 18.89715672 5 18 C2.28594725 15.87595872 1.29212856 15.05412205 0 12 C-0.40573154 7.96322794 -0.29430376 4.04177168 0 0 Z " fill="#40AAC4" transform="translate(546,195)"/>
<path d="M0 0 C4.29 0 8.58 0 13 0 C13 0.99 13 1.98 13 3 C10.03 3 7.06 3 4 3 C4 4.32 4 5.64 4 7 C6.64 7 9.28 7 12 7 C12 7.99 12 8.98 12 10 C9.36 10 6.72 10 4 10 C4 11.32 4 12.64 4 14 C7.3 14 10.6 14 14 14 C14 15.32 14 16.64 14 18 C9.38 18 4.76 18 0 18 C0 12.06 0 6.12 0 0 Z " fill="#3BA1C2" transform="translate(328,195)"/>
<path d="M0 0 C0 1.32 0 2.64 0 4 C-2.64 3.67 -5.28 3.34 -8 3 C-7.35932024 6.08759559 -7.35932024 6.08759559 -5.15234375 6.94921875 C-4.42144531 7.19285156 -3.69054687 7.43648437 -2.9375 7.6875 C-2.20402344 7.93886719 -1.47054688 8.19023437 -0.71484375 8.44921875 C-0.14894531 8.63097656 0.41695313 8.81273437 1 9 C1.48192771 14.42168675 1.48192771 14.42168675 -0.5625 16.875 C-3.87409887 18.40343025 -6.39376565 18.32783949 -10 18 C-10.99 17.34 -11.98 16.68 -13 16 C-12.505 14.515 -12.505 14.515 -12 13 C-9.03 13 -6.06 13 -3 13 C-5.22501561 11.8874922 -7.45218474 10.77916559 -9.6875 9.6875 C-12 8 -12 8 -12.8125 5.3125 C-12.9053125 4.1678125 -12.9053125 4.1678125 -13 3 C-8.50235477 -1.63819664 -5.96030685 -1.2122658 0 0 Z " fill="#299EBD" transform="translate(506,195)"/>
<path d="M0 0 C1.32 0 2.64 0 4 0 C4 2.31 4 4.62 4 7 C6.64 7 9.28 7 12 7 C12 4.69 12 2.38 12 0 C13.32 0 14.64 0 16 0 C16 5.61 16 11.22 16 17 C14.68 17 13.36 17 12 17 C12 14.69 12 12.38 12 10 C9.36 10 6.72 10 4 10 C4 12.31 4 14.62 4 17 C2.68 17 1.36 17 0 17 C0 11.39 0 5.78 0 0 Z " fill="#2694BB" transform="translate(308,195)"/>
<path d="M0 0 C10.38962335 6.46021452 10.38962335 6.46021452 13 11 C13.71994413 15.83391061 12.38830005 18.82047491 10 23 C9.34 23 8.68 23 8 23 C7.95101562 21.92878906 7.90203125 20.85757812 7.8515625 19.75390625 C7.77654706 18.35674361 7.7009987 16.9596095 7.625 15.5625 C7.5940625 14.85544922 7.563125 14.14839844 7.53125 13.41992188 C7.42719371 11.60760812 7.22080108 9.80182012 7 8 C6.34 7.67 5.68 7.34 5 7 C5 12.61 5 18.22 5 24 C-0.1440678 18.8559322 -0.1440678 18.8559322 -0.1875 13.6875 C-0.15806185 10.03716941 0.30034627 7.2930791 2 4 C1.01 3.01 0.02 2.02 -1 1 C-0.67 0.67 -0.34 0.34 0 0 Z " fill="#EAEFF5" transform="translate(137,240)"/>
<path d="M0 0 C0.90492188 0.02320313 1.80984375 0.04640625 2.7421875 0.0703125 C4.10730469 0.09738281 4.10730469 0.09738281 5.5 0.125 C6.19867187 0.14820313 6.89734375 0.17140625 7.6171875 0.1953125 C7.6171875 1.5153125 7.6171875 2.8353125 7.6171875 4.1953125 C4.9771875 3.8653125 2.3371875 3.5353125 -0.3828125 3.1953125 C-0.0528125 4.1853125 0.2771875 5.1753125 0.6171875 6.1953125 C2.93566624 6.9119332 5.27038453 7.57773277 7.6171875 8.1953125 C8.2771875 8.8553125 8.9371875 9.5153125 9.6171875 10.1953125 C9.4921875 13.1953125 9.4921875 13.1953125 8.6171875 16.1953125 C5.57858769 18.28857015 3.45200259 18.34749119 -0.1328125 17.8203125 C-0.93203125 17.70945313 -1.73125 17.59859375 -2.5546875 17.484375 C-3.45960938 17.34128906 -3.45960938 17.34128906 -4.3828125 17.1953125 C-4.3828125 15.8753125 -4.3828125 14.5553125 -4.3828125 13.1953125 C-1.4128125 13.5253125 1.5571875 13.8553125 4.6171875 14.1953125 C4.6171875 13.2053125 4.6171875 12.2153125 4.6171875 11.1953125 C3.5034375 11.0715625 2.3896875 10.9478125 1.2421875 10.8203125 C-2.3828125 10.1953125 -2.3828125 10.1953125 -4.3828125 8.1953125 C-4.6328125 5.1953125 -4.6328125 5.1953125 -4.3828125 2.1953125 C-2.3828125 0.1953125 -2.3828125 0.1953125 0 0 Z " fill="#309FC2" transform="translate(636.3828125,194.8046875)"/>
<path d="M0 0 C-3.61470236 13.49488881 -13.14767262 32.09844841 -25 40 C-24.38943137 36.99361314 -23.43995403 34.86347492 -21.75 32.3125 C-19.44438676 28.73846917 -17.36340357 25.09037562 -15.32421875 21.359375 C-13.90154858 18.82458802 -12.39521032 16.35237977 -10.875 13.875 C-9.10655854 10.97131863 -7.5647829 8.16021129 -6.3125 5 C-4.89365447 1.75692449 -3.77396923 0 0 0 Z " fill="#2D9AC0" transform="translate(270,222)"/>
<path d="M0 0 C-2.86345333 2.39167154 -5.0601469 3.41062728 -8.6875 4.1875 C-17.05636406 6.5909293 -22.21364058 12.12728015 -26.4375 19.5625 C-30.60489184 27.97786861 -31.46918626 35.71075947 -32 45 C-32.33 45 -32.66 45 -33 45 C-34.2554362 21.88387855 -34.2554362 21.88387855 -27 13 C-26.22269531 12.01193359 -26.22269531 12.01193359 -25.4296875 11.00390625 C-18.64824773 3.38707173 -10.18780149 -1.00207883 0 0 Z " fill="#1B2761" transform="translate(102,96)"/>
<path d="M0 0 C0 0.99 0 1.98 0 3 C-1.07894531 3.25652344 -2.15789062 3.51304688 -3.26953125 3.77734375 C-17.88095322 7.44048898 -31.0151531 13.41547353 -44 21 C-43.96484375 18.77734375 -43.96484375 18.77734375 -43 16 C-40.5074123 14.24142586 -38.2680301 12.90633001 -35.5625 11.5625 C-34.81129883 11.17707031 -34.06009766 10.79164062 -33.28613281 10.39453125 C-23.43328443 5.50275713 -11.14176908 0 0 0 Z " fill="#246EA2" transform="translate(117,34)"/>
<path d="M0 0 C4.29 0 8.58 0 13 0 C13 0.99 13 1.98 13 3 C10.03 3 7.06 3 4 3 C4 4.32 4 5.64 4 7 C6.64 7 9.28 7 12 7 C12 7.99 12 8.98 12 10 C9.36 10 6.72 10 4 10 C4 11.32 4 12.64 4 14 C6.97 14 9.94 14 13 14 C13 14.99 13 15.98 13 17 C8.71 17 4.42 17 0 17 C0 11.39 0 5.78 0 0 Z " fill="#229FC4" transform="translate(470,195)"/>
<path d="M0 0 C1.32 0.66 2.64 1.32 4 2 C3.67 2.639375 3.34 3.27875 3 3.9375 C1.68616708 7.96111331 1.33214622 11.80616552 2 16 C2.99 17.65 3.98 19.3 5 21 C5.33 15.72 5.66 10.44 6 5 C6.66 5 7.32 5 8 5 C8 14.57 8 24.14 8 34 C7.67 34 7.34 34 7 34 C6.96132812 32.84371094 6.96132812 32.84371094 6.921875 31.6640625 C6.86515625 30.66117187 6.8084375 29.65828125 6.75 28.625 C6.70359375 27.62726563 6.6571875 26.62953125 6.609375 25.6015625 C6.29152813 22.87745082 6.29152813 22.87745082 4.12109375 21.80859375 C3.42113281 21.54175781 2.72117188 21.27492188 2 21 C-2.23033237 16.96642728 -3.7732233 13.97641014 -4.1484375 8.12109375 C-3.90644826 4.66319493 -2.40198291 2.40198291 0 0 Z " fill="#2C356D" transform="translate(136,242)"/>
<path d="M0 0 C0.66 0.99 1.32 1.98 2 3 C-0.51171127 4.58144783 -1.63136862 5.05266163 -4.625 4.625 C-5.40875 4.41875 -6.1925 4.2125 -7 4 C-7.66 4 -8.32 4 -9 4 C-9.020625 5.299375 -9.04125 6.59875 -9.0625 7.9375 C-9.07410156 8.66839844 -9.08570313 9.39929688 -9.09765625 10.15234375 C-9.20561184 12.01732141 -9.20561184 12.01732141 -8 13 C-6.48071962 13.07179964 -4.95832518 13.08392007 -3.4375 13.0625 C-2.61121094 13.05347656 -1.78492188 13.04445312 -0.93359375 13.03515625 C-0.29550781 13.02355469 0.34257812 13.01195312 1 13 C1 13.99 1 14.98 1 16 C-1.72612745 17.85376666 -3.13623489 17.99513447 -6.5 17.875 C-10.43821339 16.89044665 -11.85029357 16.43953029 -14 13 C-14.60996224 9.86962776 -14.64258316 7.12685557 -14 4 C-10.53114779 -0.5878368 -5.43383472 -1.18498164 0 0 Z " fill="#2E9FBD" transform="translate(427,195)"/>
<path d="M0 0 C1.27609323 0.90933009 2.54565553 1.82782853 3.8125 2.75 C4.87404297 3.51570312 4.87404297 3.51570312 5.95703125 4.296875 C8.02977691 6.02482358 9.47375854 7.78526476 11 10 C10.67 10.66 10.34 11.32 10 12 C9.67 12 9.34 12 9 12 C8.34 15.3 7.68 18.6 7 22 C6.01 21.67 5.02 21.34 4 21 C3.12109375 18.41796875 3.12109375 18.41796875 2.4375 15.1875 C1.3867043 10.31347022 0.5790489 6.5790489 -3 3 C-2.01 2.01 -1.02 1.02 0 0 Z " fill="#E5EAF3" transform="translate(138,210)"/>
<path d="M0 0 C0.928125 0.66 1.85625 1.32 2.8125 2 C5.79636556 4.26574554 5.79636556 4.26574554 9 4 C11.16154381 5.58274179 11.89806219 6.5841233 12.5390625 9.19921875 C12.72132148 14.47644475 12.17581474 17.47682058 8.6875 21.5625 C6.36962195 23.97756371 5.22493732 24.92502089 2 26 C2 20.06 2 14.12 2 8 C2.33 8 2.66 8 3 8 C3 12.95 3 17.9 3 23 C3.66 23 4.32 23 5 23 C6.58324433 18.84398363 7.64808956 15.44404269 7 11 C4.57184111 7.58745237 2.48478855 5.32319237 -1 3 C-0.67 2.01 -0.34 1.02 0 0 Z " fill="#1B8BAE" transform="translate(142,240)"/>
<path d="M0 0 C3.55475507 1.71389977 5.36288539 2.9750765 7.4375 6.3125 C8.15915451 9.76040489 7.67310789 12.56714976 7 16 C6.67 16 6.34 16 6 16 C5.609375 13.98177083 5.21875 11.96354167 4.828125 9.9453125 C4.14703811 7.88597375 4.14703811 7.88597375 2.3046875 6.7578125 C-0.59258986 5.80514842 -3.07770356 5.73502557 -6.125 5.75 C-7.17945313 5.74484375 -8.23390625 5.7396875 -9.3203125 5.734375 C-12.15175355 5.72914832 -12.15175355 5.72914832 -14 8 C-14.99 8 -15.98 8 -17 8 C-13.87529711 0.04621082 -7.79614312 -1.23490907 0 0 Z " fill="#27336F" transform="translate(148,68)"/>
<path d="M0 0 C0.66 0.33 1.32 0.66 2 1 C2.89454156 4.07722297 3.5393369 7.18129179 4.21875 10.3125 C4.4765625 11.199375 4.734375 12.08625 5 13 C5.66 13.33 6.32 13.66 7 14 C7.04898438 13.28972656 7.09796875 12.57945312 7.1484375 11.84765625 C7.22320312 10.92855469 7.29796875 10.00945312 7.375 9.0625 C7.44460937 8.14597656 7.51421875 7.22945312 7.5859375 6.28515625 C7.79089844 5.15400391 7.79089844 5.15400391 8 4 C8.66 3.67 9.32 3.34 10 3 C10.66 3.33 11.32 3.66 12 4 C12.18585272 8.08875987 11.80145306 10.39709388 10 14 C10.37183507 16.97468053 11.5929527 19.3735117 13 22 C10 22 10 22 7.5546875 19.8828125 C6.67039063 18.97273438 5.78609375 18.06265625 4.875 17.125 C3.98554688 16.22007812 3.09609375 15.31515625 2.1796875 14.3828125 C-0.7460838 11.18438868 -1.13856436 9.66279874 -1.125 5.4375 C-1.12886719 4.22900391 -1.12886719 4.22900391 -1.1328125 2.99609375 C-1 1 -1 1 0 0 Z " fill="#EDF1F6" transform="translate(138,218)"/>
<path d="M0 0 C5.28 0 10.56 0 16 0 C16 0.99 16 1.98 16 3 C14.02 3 12.04 3 10 3 C10 7.95 10 12.9 10 18 C8.68 18 7.36 18 6 18 C6 13.05 6 8.1 6 3 C4.02 3 2.04 3 0 3 C0 2.01 0 1.02 0 0 Z " fill="#309BBD" transform="translate(564,195)"/>
<path d="M0 0 C0.66 0 1.32 0 2 0 C1.44056958 6.61326676 0.21670715 12.60529895 -1.75 18.9375 C-1.98976563 19.78634766 -2.22953125 20.63519531 -2.4765625 21.50976562 C-4.36662065 27.63296948 -4.36662065 27.63296948 -7.703125 29.56640625 C-8.46109375 29.70949219 -9.2190625 29.85257813 -10 30 C-9.30183944 25.84241464 -8.01940835 22.07637754 -6.5625 18.125 C-4.84294653 13.45397417 -3.35867444 8.78743226 -2 4 C-1.37530495 2.64649406 -0.7283669 1.30065517 0 0 Z " fill="#2674A6" transform="translate(276,194)"/>
<path d="M0 0 C4.95 0 9.9 0 15 0 C15 0.99 15 1.98 15 3 C13.35 3 11.7 3 10 3 C10 7.95 10 12.9 10 18 C8.68 18 7.36 18 6 18 C6 13.05 6 8.1 6 3 C4.02 3 2.04 3 0 3 C0 2.01 0 1.02 0 0 Z " fill="#41A4C3" transform="translate(376,195)"/>
<path d="M0 0 C0.66 0 1.32 0 2 0 C0.87114558 2.86555352 -0.30654039 5.68665048 -1.5625 8.5 C-2.78705396 11.48152269 -3.38376229 13.87803104 -4 17 C-4.62056236 19.19480279 -5.26797844 21.38213356 -5.9375 23.5625 C-6.27652344 24.67753906 -6.61554687 25.79257813 -6.96484375 26.94140625 C-7.81383861 29.44994578 -8.73613541 31.68197032 -10 34 C-10.96865605 30.23300425 -10.87477681 27.7615403 -10 24 C-9.896875 22.783125 -9.79375 21.56625 -9.6875 20.3125 C-9.08406096 15.29341971 -7.48979524 10.40436192 -5 6 C-4.01 5.67 -3.02 5.34 -2 5 C-0.78130071 2.49552484 -0.78130071 2.49552484 0 0 Z " fill="#1F6BA0" transform="translate(22,109)"/>
<path d="M0 0 C0.33 1.32 0.66 2.64 1 4 C-4.1378014 8.3494615 -9.53512374 12.12477232 -15.3125 15.5625 C-16.2099292 16.1184082 -16.2099292 16.1184082 -17.12548828 16.68554688 C-18.86328125 17.69140625 -18.86328125 17.69140625 -22 19 C-24.41796875 18.21484375 -24.41796875 18.21484375 -26 17 C-25.34 17 -24.68 17 -24 17 C-24 16.34 -24 15.68 -24 15 C-22.40671875 14.12988281 -22.40671875 14.12988281 -20.78125 13.2421875 C-13.49029071 9.22371809 -6.48293301 5.26738307 0 0 Z " fill="#28609F" transform="translate(225,276)"/>
<path d="M0 0 C2.875 0.6875 2.875 0.6875 3.875 1.6875 C4.33375252 6.96315392 4.33375252 6.96315392 2.6875 9.5625 C0.25741919 11.07082602 -1.31515752 11.04773622 -4.125 10.6875 C-6.125 8.6875 -6.125 8.6875 -6.4375 5.1875 C-6.334375 4.0325 -6.23125 2.8775 -6.125 1.6875 C-3.125 -0.3125 -3.125 -0.3125 0 0 Z " fill="#EDF7F9" transform="translate(600.125,198.3125)"/>
<path d="M0 0 C1 1 1 1 1.25 4.4375 C1.1675 5.613125 1.085 6.78875 1 8 C-2.22373677 10.14915785 -3.26703674 10.38286803 -7 10 C-9 8 -9 8 -9.3125 5.0625 C-9 2 -9 2 -7.875 0.0625 C-5.04805609 -1.53943488 -3.05073223 -0.79584319 0 0 Z " fill="#EFF8FA" transform="translate(523,199)"/>
<path d="M0 0 C1.32 0 2.64 0 4 0 C4 4.62 4 9.24 4 14 C6.64 14 9.28 14 12 14 C12 14.99 12 15.98 12 17 C8.04 17 4.08 17 0 17 C0 11.39 0 5.78 0 0 Z " fill="#1D93B8" transform="translate(365,195)"/>
<path d="M0 0 C1.32 0 2.64 0 4 0 C4 4.62 4 9.24 4 14 C6.64 14 9.28 14 12 14 C12 14.99 12 15.98 12 17 C8.04 17 4.08 17 0 17 C0 11.39 0 5.78 0 0 Z " fill="#20A0C1" transform="translate(532,195)"/>
<path d="M0 0 C0.66 0 1.32 0 2 0 C2.28951652 5.59731932 2.18452849 9.1683016 -1 14 C-5.10971295 18.47233468 -9.22341928 18.74829714 -15 19 C-14.67 17.35 -14.34 15.7 -14 14 C-12.35 13.67 -10.7 13.34 -9 13 C-9 13.66 -9 14.32 -9 15 C-4.95740206 12.92407133 -2.89088689 11.15995116 -1 7 C-0.28076792 3.30476048 -0.28076792 3.30476048 0 0 Z " fill="#384278" transform="translate(155,77)"/>
<path d="M0 0 C2.29109597 -0.08075665 4.58299267 -0.13907731 6.875 -0.1875 C8.78925781 -0.23970703 8.78925781 -0.23970703 10.7421875 -0.29296875 C11.81726563 -0.19628906 12.89234375 -0.09960938 14 0 C16 3 16 3 16 7 C14.68 6.67 13.36 6.34 12 6 C12 5.34 12 4.68 12 4 C10.5199159 4.11362262 9.04089926 4.24122908 7.5625 4.375 C6.73878906 4.44460937 5.91507812 4.51421875 5.06640625 4.5859375 C4.38449219 4.72257813 3.70257813 4.85921875 3 5 C2.67 5.66 2.34 6.32 2 7 C0.68 7 -0.64 7 -2 7 C-1.34 4.69 -0.68 2.38 0 0 Z " fill="#1390B5" transform="translate(432,205)"/>
<path d="M0 0 C0.66 0 1.32 0 2 0 C2 0.66 2 1.32 2 2 C2.66 2 3.32 2 4 2 C3.67 9.92 3.34 17.84 3 26 C2.01 26 1.02 26 0 26 C0 17.42 0 8.84 0 0 Z " fill="#37679A" transform="translate(6,156)"/>
<path d="M0 0 C1.093125 0.00257812 2.18625 0.00515625 3.3125 0.0078125 C4.405625 0.00523438 5.49875 0.00265625 6.625 0 C9.3125 0.1328125 9.3125 0.1328125 10.3125 1.1328125 C10.39976223 2.91352496 10.41949041 4.6976439 10.41015625 6.48046875 C10.40693359 7.56005859 10.40371094 8.63964844 10.40039062 9.75195312 C10.39201172 10.88826172 10.38363281 12.02457031 10.375 13.1953125 C10.37048828 14.33548828 10.36597656 15.47566406 10.36132812 16.65039062 C10.34949747 19.47791601 10.3330141 22.3053389 10.3125 25.1328125 C9.9825 25.1328125 9.6525 25.1328125 9.3125 25.1328125 C9.3125 17.5428125 9.3125 9.9528125 9.3125 2.1328125 C6.3425 2.1328125 3.3725 2.1328125 0.3125 2.1328125 C-2.0896604 6.9371333 -2.29872229 11.86385145 -2.6875 17.1328125 C-3.0175 17.1328125 -3.3475 17.1328125 -3.6875 17.1328125 C-3.71434679 14.48691236 -3.73426357 11.84128154 -3.75 9.1953125 C-3.75837891 8.44056641 -3.76675781 7.68582031 -3.77539062 6.90820312 C-3.78402441 4.98286937 -3.73974333 3.05745669 -3.6875 1.1328125 C-2.6875 0.1328125 -2.6875 0.1328125 0 0 Z " fill="#556C9A" transform="translate(139.6875,99.8671875)"/>
<path d="M0 0 C0.90492188 0.02320313 1.80984375 0.04640625 2.7421875 0.0703125 C4.10730469 0.09738281 4.10730469 0.09738281 5.5 0.125 C6.19867187 0.14820313 6.89734375 0.17140625 7.6171875 0.1953125 C7.6171875 1.5153125 7.6171875 2.8353125 7.6171875 4.1953125 C4.9771875 3.8653125 2.3371875 3.5353125 -0.3828125 3.1953125 C0.3935807 6.2698481 0.3935807 6.2698481 2.6171875 8.1953125 C2.6171875 8.8553125 2.6171875 9.5153125 2.6171875 10.1953125 C0.2421875 10.3203125 0.2421875 10.3203125 -2.3828125 10.1953125 C-4.3828125 8.1953125 -4.3828125 8.1953125 -4.6328125 5.1953125 C-4.32702549 1.52586836 -3.78340526 0.31011519 0 0 Z " fill="#309EBE" transform="translate(636.3828125,194.8046875)"/>
<path d="M0 0 C3.96 0 7.92 0 12 0 C12 0.99 12 1.98 12 3 C9.03 3 6.06 3 3 3 C3 4.32 3 5.64 3 7 C5.64 7 8.28 7 11 7 C11 7.66 11 8.32 11 9 C9.01432292 8.96744792 7.02864583 8.93489583 5.04296875 8.90234375 C2.79694539 8.91736783 2.79694539 8.91736783 0 10 C0 6.7 0 3.4 0 0 Z " fill="#1F95B9" transform="translate(329,195)"/>
<path d="M0 0 C1.32 0 2.64 0 4 0 C4 5.61 4 11.22 4 17 C2.68 17 1.36 17 0 17 C0 11.39 0 5.78 0 0 Z " fill="#1493B4" transform="translate(582,195)"/>
<path d="M0 0 C0.33 1.32 0.66 2.64 1 4 C-1.27041785 5.62558319 -3.54131589 7.25048802 -5.8125 8.875 C-6.77639648 9.56529297 -6.77639648 9.56529297 -7.75976562 10.26953125 C-8.38173828 10.71425781 -9.00371094 11.15898438 -9.64453125 11.6171875 C-10.50075073 12.22989502 -10.50075073 12.22989502 -11.37426758 12.85498047 C-12.89866439 13.92862832 -14.44860985 14.9657399 -16 16 C-15.69871559 12.67428363 -15.27501558 11.27807131 -12.890625 8.8671875 C-12.01921875 8.20976563 -11.1478125 7.55234375 -10.25 6.875 C-8.95835938 5.88113281 -8.95835938 5.88113281 -7.640625 4.8671875 C-5.15610357 3.11038093 -2.63218299 1.52439375 0 0 Z " fill="#289BBF" transform="translate(72,51)"/>
<path d="M0 0 C2.5625 1.375 2.5625 1.375 4 3 C4 3.66 4 4.32 4 5 C3.01 5.33 2.02 5.66 1 6 C0.01 5.34 -0.98 4.68 -2 4 C-5.75904624 4.15995941 -7.50970372 4.57421639 -10.375 7.0625 C-10.91125 7.701875 -11.4475 8.34125 -12 9 C-12.75 6.75 -12.75 6.75 -13 4 C-9.98949207 -1.06312697 -5.30769536 -0.8278057 0 0 Z " fill="#2A98BC" transform="translate(603,195)"/>
<path d="M0 0 C0.28875 0.61875 0.5775 1.2375 0.875 1.875 C1.93720042 4.13325765 1.93720042 4.13325765 4 6 C-0.73200613 10.88973966 -0.73200613 10.88973966 -4.875 11.25 C-8.29533822 10.97637294 -9.52307741 10.28639008 -12 8 C-8.46588679 5.87953208 -5.05606165 5.46800711 -1 5 C-0.67 3.35 -0.34 1.7 0 0 Z " fill="#2EA0C1" transform="translate(524,202)"/>
<path d="M0 0 C1 1 1 1 1.125 4 C1 7 1 7 0 8 C-3 8.125 -3 8.125 -6 8 C-7 7 -7 7 -7.0625 3.9375 C-7.041875 2.968125 -7.02125 1.99875 -7 1 C-4.51588385 -0.24205807 -2.74800896 -0.14092354 0 0 Z " fill="#1E6FA4" transform="translate(146,78)"/>
<path d="M0 0 C0.33 0 0.66 0 1 0 C1 4.95 1 9.9 1 15 C1.66 15 2.32 15 3 15 C3.99 11.7 4.98 8.4 6 5 C6.99 5 7.98 5 9 5 C9.703125 6.73828125 9.703125 6.73828125 10 9 C8.671875 11.10546875 8.671875 11.10546875 6.75 13.1875 C5.81414062 14.22970703 5.81414062 14.22970703 4.859375 15.29296875 C3 17 3 17 0 18 C0 12.06 0 6.12 0 0 Z " fill="#5B9CBA" transform="translate(144,248)"/>
<path d="M0 0 C0.23046875 2.27734375 0.23046875 2.27734375 0 5 C-1.57421875 6.87890625 -1.57421875 6.87890625 -3.6875 8.5625 C-4.41324219 9.15289062 -5.13898437 9.74328125 -5.88671875 10.3515625 C-6.58410156 10.89554688 -7.28148437 11.43953125 -8 12 C-8.99 12.804375 -9.98 13.60875 -11 14.4375 C-11.99 15.2109375 -11.99 15.2109375 -13 16 C-13.33 15.01 -13.66 14.02 -14 13 C-11.85714108 10.83031809 -9.71091768 8.66416525 -7.5625 6.5 C-6.64500977 5.56994141 -6.64500977 5.56994141 -5.70898438 4.62109375 C-5.12568359 4.03457031 -4.54238281 3.44804688 -3.94140625 2.84375 C-3.13231812 2.02680664 -3.13231812 2.02680664 -2.30688477 1.19335938 C-1 0 -1 0 0 0 Z " fill="#34B2CE" transform="translate(56,63)"/>
<path d="M0 0 C0.66 0 1.32 0 2 0 C2 9.57 2 19.14 2 29 C1.67 29 1.34 29 1 29 C0.92652344 27.82630859 0.92652344 27.82630859 0.8515625 26.62890625 C0.77679688 25.61699219 0.70203125 24.60507812 0.625 23.5625 C0.55539063 22.55316406 0.48578125 21.54382813 0.4140625 20.50390625 C0.27742187 19.67761719 0.14078125 18.85132813 0 18 C-0.66 17.67 -1.32 17.34 -2 17 C-1.34 17 -0.68 17 0 17 C0 11.39 0 5.78 0 0 Z " fill="#465B91" transform="translate(142,247)"/>
<path d="M0 0 C-2.84823466 2.35061205 -5.25993001 3.58344528 -8.8125 4.5625 C-9.68261719 4.80742188 -10.55273438 5.05234375 -11.44921875 5.3046875 C-12.29097656 5.53414063 -13.13273437 5.76359375 -14 6 C-15.37542086 6.39436846 -16.7504859 6.78998268 -18.125 7.1875 C-19.07375 7.455625 -20.0225 7.72375 -21 8 C-15.19462422 1.22706159 -8.6725046 -0.72270872 0 0 Z " fill="#222D68" transform="translate(102,96)"/>
<path d="M0 0 C0 3.7226489 -0.98537259 4.67462429 -3.25 7.5625 C-3.85328125 8.34753906 -4.4565625 9.13257813 -5.078125 9.94140625 C-7.00595596 12.00637966 -8.46169191 12.85547231 -11 14 C-11.969375 14.825 -12.93875 15.65 -13.9375 16.5 C-16.66778039 18.72880032 -18.69025144 19.92919899 -22 21 C-18.83084602 17.72520756 -15.52673606 14.65856035 -12.125 11.625 C-7.93785018 7.88289156 -3.91164128 4.02821337 0 0 Z " fill="#33ACC8" transform="translate(230,245)"/>
<path d="M0 0 C2.0625 0.4375 2.0625 0.4375 4 1 C4.34833144 5.87664009 3.41685712 8.77050005 1 13 C0.34 13 -0.32 13 -1 13 C-1.02686553 11.02090602 -1.04633375 9.04171029 -1.0625 7.0625 C-1.07410156 5.96035156 -1.08570313 4.85820312 -1.09765625 3.72265625 C-1 1 -1 1 0 0 Z " fill="#F1F6F9" transform="translate(146,250)"/>
<path d="M0 0 C6.75 0.75 6.75 0.75 9 3 C9.125 6.625 9.125 6.625 9 10 C8.01 10.33 7.02 10.66 6 11 C5.67 13.31 5.34 15.62 5 18 C4.67 18 4.34 18 4 18 C4 12.39 4 6.78 4 1 C2.68 0.67 1.36 0.34 0 0 Z " fill="#CFE8EE" transform="translate(624,194)"/>
<path d="M0 0 C4.29 0 8.58 0 13 0 C13 0.99 13 1.98 13 3 C12.37351562 3.03738281 11.74703125 3.07476562 11.1015625 3.11328125 C10.28429687 3.17902344 9.46703125 3.24476563 8.625 3.3125 C7.40683594 3.39951172 7.40683594 3.39951172 6.1640625 3.48828125 C3.62078662 3.82990528 3.62078662 3.82990528 2 7 C1.34 7 0.68 7 0 7 C0 4.69 0 2.38 0 0 Z " fill="#1C98BA" transform="translate(470,195)"/>
<path d="M0 0 C0.66 0.33 1.32 0.66 2 1 C1.27554688 1.59167969 0.55109375 2.18335938 -0.1953125 2.79296875 C-5.14804091 6.84099877 -10.09687934 10.89197999 -15 15 C-14.34 17.31 -13.68 19.62 -13 22 C-14.98 20.35 -16.96 18.7 -19 17 C-17.58768106 13.6385531 -15.99382121 11.93568747 -13.0859375 9.765625 C-12.32539063 9.19199219 -11.56484375 8.61835938 -10.78125 8.02734375 C-9.59015625 7.14755859 -9.59015625 7.14755859 -8.375 6.25 C-7.57320312 5.64800781 -6.77140625 5.04601562 -5.9453125 4.42578125 C-3.9687329 2.94334655 -1.98695558 1.46848138 0 0 Z " fill="#27ABC9" transform="translate(168,173)"/>
<path d="M0 0 C0 0.99 0 1.98 0 3 C-2.62299801 3.69608034 -5.2479207 4.38215382 -7.875 5.0625 C-8.62136719 5.26166016 -9.36773437 5.46082031 -10.13671875 5.66601562 C-15.7734375 7.11328125 -15.7734375 7.11328125 -18 6 C-18 5.34 -18 4.68 -18 4 C-15.5636811 3.32873871 -13.12611117 2.66283646 -10.6875 2 C-9.65206055 1.71382812 -9.65206055 1.71382812 -8.59570312 1.421875 C-5.64212051 0.62283816 -3.07440781 0 0 0 Z " fill="#2D6598" transform="translate(117,34)"/>
<path d="M0 0 C1.32 0 2.64 0 4 0 C4 3.96 4 7.92 4 12 C2.35 11.67 0.7 11.34 -1 11 C-0.67 7.37 -0.34 3.74 0 0 Z " fill="#2396B5" transform="translate(624,195)"/>
<path d="M0 0 C0.66 0 1.32 0 2 0 C1.35199575 1.67401097 0.67834587 3.33805262 0 5 C-0.29132812 5.75925781 -0.58265625 6.51851563 -0.8828125 7.30078125 C-1.21023437 8.10902344 -1.53765625 8.91726562 -1.875 9.75 C-2.18179687 10.52859375 -2.48859375 11.3071875 -2.8046875 12.109375 C-4 14 -4 14 -6.1328125 14.765625 C-7.05707031 14.88164063 -7.05707031 14.88164063 -8 15 C-7.57742724 13.5164999 -7.13643678 12.03823576 -6.6875 10.5625 C-6.44386719 9.73878906 -6.20023438 8.91507813 -5.94921875 8.06640625 C-5.63597656 7.38449219 -5.32273437 6.70257813 -5 6 C-4.01 5.67 -3.02 5.34 -2 5 C-0.78130071 2.49552484 -0.78130071 2.49552484 0 0 Z " fill="#2485AE" transform="translate(22,109)"/>
<path d="M0 0 C0.33 1.32 0.66 2.64 1 4 C-0.4334152 5.15093925 -1.87188909 6.29558035 -3.3125 7.4375 C-4.51326172 8.39462891 -4.51326172 8.39462891 -5.73828125 9.37109375 C-8 11 -8 11 -11 12 C-10.72087372 8.56140181 -10.34760044 7.3071956 -7.71484375 4.98046875 C-6.34005859 4.09294922 -6.34005859 4.09294922 -4.9375 3.1875 C-4.01839844 2.58292969 -3.09929687 1.97835938 -2.15234375 1.35546875 C-1.44207031 0.90816406 -0.73179687 0.46085937 0 0 Z " fill="#246AA2" transform="translate(225,276)"/>
<path d="M0 0 C0.99 0.66 1.98 1.32 3 2 C1.10807525 2.98669759 -0.78871978 3.9640602 -2.6875 4.9375 C-3.74324219 5.48277344 -4.79898438 6.02804687 -5.88671875 6.58984375 C-8.66234047 7.8470576 -11.00272126 8.56069569 -14 9 C-14.33 8.34 -14.66 7.68 -15 7 C-12.56984444 5.77446029 -10.13280909 4.56958626 -7.6875 3.375 C-6.99720703 3.024375 -6.30691406 2.67375 -5.59570312 2.3125 C-3.57421875 1.3359375 -3.57421875 1.3359375 0 0 Z " fill="#234C8B" transform="translate(198,293)"/>
<path d="M0 0 C1.66611905 -0.042721 3.33382885 -0.04063832 5 0 C6 1 6 1 6.09765625 2.84765625 C6.04882812 5.92382812 6.04882812 5.92382812 6 9 C5.01 8.01 4.02 7.02 3 6 C2.01 6.495 2.01 6.495 1 7 C0.01 6.67 -0.98 6.34 -2 6 C-1.34 4.02 -0.68 2.04 0 0 Z " fill="#2290B2" transform="translate(350,195)"/>
<path d="M0 0 C1.98 0.99 1.98 0.99 4 2 C4 5.63 4 9.26 4 13 C3.01 12.67 2.02 12.34 1 12 C-0.26237731 9.47524538 -0.09856404 7.68799534 -0.0625 4.875 C-0.05347656 3.96492187 -0.04445312 3.05484375 -0.03515625 2.1171875 C-0.02355469 1.41851562 -0.01195312 0.71984375 0 0 Z " fill="#233680" transform="translate(141,219)"/>
<path d="M0 0 C1.32 0.33 2.64 0.66 4 1 C4 5.29 4 9.58 4 14 C2.68 13.67 1.36 13.34 0 13 C0 8.71 0 4.42 0 0 Z " fill="#D5E2ED" transform="translate(133,116)"/>
<path d="M0 0 C7.42857143 1 7.42857143 1 11 2 C11 2.99 11 3.98 11 5 C9.37509046 5.02698189 7.75005367 5.04638757 6.125 5.0625 C4.76761719 5.07990234 4.76761719 5.07990234 3.3828125 5.09765625 C1 5 1 5 -1 4 C-0.67 2.68 -0.34 1.36 0 0 Z " fill="#EDF8FA" transform="translate(630,204)"/>
<path d="M0 0 C0.33 0.99 0.66 1.98 1 3 C-0.80078125 5.6640625 -0.80078125 5.6640625 -3.3125 8.625 C-4.13363281 9.60726563 -4.95476562 10.58953125 -5.80078125 11.6015625 C-8 14 -8 14 -10 15 C-9.36235365 11.59403535 -8.0508817 9.23986879 -6.125 6.375 C-5.61195313 5.59898437 -5.09890625 4.82296875 -4.5703125 4.0234375 C-3 2 -3 2 0 0 Z " fill="#2FA6C3" transform="translate(255,247)"/>
<path d="M0 0 C0.66 0.33 1.32 0.66 2 1 C1.67 5.95 1.34 10.9 1 16 C0.01 16 -0.98 16 -2 16 C-2.05384521 13.70858714 -2.09272087 11.41681812 -2.125 9.125 C-2.14820313 7.84882813 -2.17140625 6.57265625 -2.1953125 5.2578125 C-2 2 -2 2 0 0 Z " fill="#1893B3" transform="translate(572,196)"/>
<path d="M0 0 C0.99 0 1.98 0 3 0 C3.05386629 2.12472576 3.09273071 4.24983652 3.125 6.375 C3.14820313 7.55835938 3.17140625 8.74171875 3.1953125 9.9609375 C3 13 3 13 1 15 C0.34 14.34 -0.32 13.68 -1 13 C-0.9765625 9.9609375 -0.9765625 9.9609375 -0.625 6.375 C-0.51414062 5.18648437 -0.40328125 3.99796875 -0.2890625 2.7734375 C-0.19367187 1.85820312 -0.09828125 0.94296875 0 0 Z " fill="#2099B9" transform="translate(559,195)"/>
<path d="M0 0 C0.99 0.66 1.98 1.32 3 2 C-0.97330961 9.26156584 -0.97330961 9.26156584 -4 12 C-4.33 12.66 -4.66 13.32 -5 14 C-5.66 14 -6.32 14 -7 14 C-5.53967505 8.68972746 -3.01679014 4.53669968 0 0 Z " fill="#36A0BE" transform="translate(25,100)"/>
<path d="M0 0 C1.58143181 3.16286362 1.05876769 6.53923605 1 10 C1 11.32 1 12.64 1 14 C0.01 14 -0.98 14 -2 14 C-3.16343227 11.67313547 -3.19895988 10.15278587 -3.25 7.5625 C-3.28867187 6.38880859 -3.28867187 6.38880859 -3.328125 5.19140625 C-2.92823089 2.52068491 -2.05300878 1.68022561 0 0 Z " fill="#1E99B6" transform="translate(513,196)"/>
<path d="M0 0 C0.99 0 1.98 0 3 0 C3 5.61 3 11.22 3 17 C2.01 17 1.02 17 0 17 C0 11.39 0 5.78 0 0 Z " fill="#138FB1" transform="translate(394,195)"/>
<path d="M0 0 C1.99954746 -0.04254356 4.00041636 -0.04080783 6 0 C7 1 7 1 7.0625 3.5625 C7.041875 4.366875 7.02125 5.17125 7 6 C4.69 6 2.38 6 0 6 C0 4.02 0 2.04 0 0 Z " fill="#DEEFF3" transform="translate(455,198)"/>
<path d="M0 0 C0.33 0 0.66 0 1 0 C1.02699725 2.27076842 1.04639453 4.54162821 1.0625 6.8125 C1.07410156 8.07707031 1.08570313 9.34164062 1.09765625 10.64453125 C1 14 1 14 0 17 C-0.66 17.33 -1.32 17.66 -2 18 C-2.66 18.99 -3.32 19.98 -4 21 C-3.88648483 19.18674449 -3.75887039 17.37436643 -3.625 15.5625 C-3.55539062 14.55316406 -3.48578125 13.54382813 -3.4140625 12.50390625 C-3.27742188 11.67761719 -3.14078125 10.85132813 -3 10 C-2.34 9.67 -1.68 9.34 -1 9 C-0.53348793 6.87423218 -0.53348793 6.87423218 -0.375 4.4375 C-0.30023438 3.61121094 -0.22546875 2.78492188 -0.1484375 1.93359375 C-0.09945313 1.29550781 -0.05046875 0.65742188 0 0 Z " fill="#205E9C" transform="translate(278,177)"/>
<path d="M0 0 C-1.99562363 8.35010941 -1.99562363 8.35010941 -6.1875 11.0625 C-7.115625 11.371875 -8.04375 11.68125 -9 12 C-5.18181818 0 -5.18181818 0 0 0 Z " fill="#2A89B5" transform="translate(270,222)"/>
<path d="M0 0 C0 4.62 0 9.24 0 14 C-0.99 14 -1.98 14 -3 14 C-3 9.71 -3 5.42 -3 1 C-1 0 -1 0 0 0 Z " fill="#1A96B7" transform="translate(385,198)"/>
<path d="M0 0 C1.9375 0.5625 1.9375 0.5625 4 2 C4.75 5.625 4.75 5.625 5 9 C3.02 9.99 3.02 9.99 1 11 C0.7834375 9.63875 0.7834375 9.63875 0.5625 8.25 C0.07533901 5.13728293 0.07533901 5.13728293 -0.625 2.6875 C-0.74875 2.130625 -0.8725 1.57375 -1 1 C-0.67 0.67 -0.34 0.34 0 0 Z " fill="#2498BA" transform="translate(524,197)"/>
<path d="M0 0 C0.33 0 0.66 0 1 0 C1 1.65 1 3.3 1 5 C1.78375 4.938125 2.5675 4.87625 3.375 4.8125 C4.674375 4.9053125 4.674375 4.9053125 6 5 C6.99 6.485 6.99 6.485 8 8 C7.01 8 6.02 8 5 8 C4.67 9.32 4.34 10.64 4 12 C3.01 11.67 2.02 11.34 1 11 C0.63890458 9.35567294 0.28629924 7.7094792 -0.0625 6.0625 C-0.25972656 5.14597656 -0.45695313 4.22945313 -0.66015625 3.28515625 C-0.77230469 2.53105469 -0.88445312 1.77695313 -1 1 C-0.67 0.67 -0.34 0.34 0 0 Z " fill="#29427F" transform="translate(136,83)"/>
<path d="M0 0 C6.0546875 -0.1953125 6.0546875 -0.1953125 8 0 C10 2 10 2 10.125 5.125 C10.08375 6.07375 10.0425 7.0225 10 8 C9.01 7.67 8.02 7.34 7 7 C6.731875 6.34 6.46375 5.68 6.1875 5 C5.5996875 4.01 5.5996875 4.01 5 3 C1.94091587 2.18415432 1.94091587 2.18415432 -1 2 C-0.67 1.34 -0.34 0.68 0 0 Z " fill="#178EB2" transform="translate(456,196)"/>
<path d="M0 0 C0.33 0 0.66 0 1 0 C1 5.66666667 1 11.33333333 1 17 C-1.70879335 18.35439668 -4.00933268 18.06501451 -7 18 C-7 17.67 -7 17.34 -7 17 C-5.35 17 -3.7 17 -2 17 C-2 16.34 -2 15.68 -2 15 C-2.99 14.67 -3.98 14.34 -5 14 C-4.03320312 13.69449219 -4.03320312 13.69449219 -3.046875 13.3828125 C-0.68846128 12.1332065 -0.68846128 12.1332065 -0.390625 9.1796875 C-0.34421875 8.08914062 -0.2978125 6.99859375 -0.25 5.875 C-0.19328125 4.77929688 -0.1365625 3.68359375 -0.078125 2.5546875 C-0.05234375 1.71164063 -0.0265625 0.86859375 0 0 Z " fill="#45ABC9" transform="translate(558,195)"/>
<path d="M0 0 C2.35953094 2.35953094 2.49141413 3.77895617 3 7 C0.03 6.67 -2.94 6.34 -6 6 C-5.34 4.68 -4.68 3.36 -4 2 C-3.01 2 -2.02 2 -1 2 C-0.67 1.34 -0.34 0.68 0 0 Z " fill="#86C7D8" transform="translate(439,199)"/>
<path d="M0 0 C3.96 0 7.92 0 12 0 C12 0.33 12 0.66 12 1 C10.906875 1.12375 9.81375 1.2475 8.6875 1.375 C4.92618198 1.75464801 4.92618198 1.75464801 2 4 C1.41407366 7.11610554 1.41407366 7.11610554 1.3125 10.625 C1.24675781 11.81351563 1.18101562 13.00203125 1.11328125 14.2265625 C1.07589844 15.14179688 1.03851563 16.05703125 1 17 C0.67 17 0.34 17 0 17 C0 11.39 0 5.78 0 0 Z " fill="#36A4BF" transform="translate(451,195)"/>
<path d="M0 0 C0.66 0.33 1.32 0.66 2 1 C1.236875 1.7425 0.47375 2.485 -0.3125 3.25 C-2.45269795 5.43996999 -4.18776665 7.55742462 -6 10 C-7.31442362 11.35197858 -8.6434836 12.69026002 -10 14 C-10.33 13.34 -10.66 12.68 -11 12 C-9.85996765 8.57990294 -8.77829802 7.71130558 -6.0625 5.4375 C-3.96656037 3.66869432 -1.94005112 1.94005112 0 0 Z " fill="#2783B4" transform="translate(236,266)"/>
<path d="M0 0 C0.33 0 0.66 0 1 0 C1 4.62 1 9.24 1 14 C3.64 14 6.28 14 9 14 C9 14.33 9 14.66 9 15 C5.37 15.33 1.74 15.66 -2 16 C-1.34 10.72 -0.68 5.44 0 0 Z " fill="#39A2BE" transform="translate(368,195)"/>
<path d="M0 0 C2 3 2 3 3 6 C-0.4352048 8.29013653 -1.985331 8.17842973 -6 8 C-5.34 6.02 -4.68 4.04 -4 2 C-3.01 2.99 -2.02 3.98 -1 5 C-0.67 3.35 -0.34 1.7 0 0 Z " fill="#82C3D6" transform="translate(356,198)"/>
<path d="M0 0 C0.33 0.99 0.66 1.98 1 3 C-1.88087546 5.40072955 -4.56404834 7.47291037 -8 9 C-7.9375 6.75 -7.9375 6.75 -7 4 C-4.7691525 2.32150176 -2.52594094 1.24000737 0 0 Z " fill="#2284B2" transform="translate(81,46)"/>
<path d="M0 0 C0.99 0.33 1.98 0.66 3 1 C3 1.99 3 2.98 3 4 C4.32 4.66 5.64 5.32 7 6 C7 6.66 7 7.32 7 8 C4.625 8.125 4.625 8.125 2 8 C0 6 0 6 -0.125 2.875 C-0.08375 1.92625 -0.0425 0.9775 0 0 Z " fill="#1E98B9" transform="translate(632,197)"/>
<path d="M0 0 C-2 3 -2 3 -3.9453125 3.51171875 C-4.66460937 3.56972656 -5.38390625 3.62773437 -6.125 3.6875 C-8.043125 3.8421875 -8.043125 3.8421875 -10 4 C-10 3.34 -10 2.68 -10 2 C-9.34 2 -8.68 2 -8 2 C-8 1.34 -8 0.68 -8 0 C-4.71023192 -1.09658936 -3.28696233 -0.79953138 0 0 Z " fill="#3EA3C6" transform="translate(429,209)"/>
<path d="M0 0 C0.99 0.33 1.98 0.66 3 1 C3 4.3 3 7.6 3 11 C2.01 11 1.02 11 0 11 C0 7.37 0 3.74 0 0 Z " fill="#2396B4" transform="translate(533,196)"/>
<path d="M0 0 C0.66 0.33 1.32 0.66 2 1 C2 1.66 2 2.32 2 3 C5.3 3 8.6 3 12 3 C12 3.33 12 3.66 12 4 C11.04287109 4.07347656 11.04287109 4.07347656 10.06640625 4.1484375 C9.24011719 4.22320312 8.41382813 4.29796875 7.5625 4.375 C6.73878906 4.44460937 5.91507812 4.51421875 5.06640625 4.5859375 C4.38449219 4.72257813 3.70257813 4.85921875 3 5 C2.67 5.66 2.34 6.32 2 7 C0.68 7 -0.64 7 -2 7 C-1.34 4.69 -0.68 2.38 0 0 Z " fill="#36A4C4" transform="translate(432,205)"/>
<path d="M0 0 C3.375 -0.1875 3.375 -0.1875 7 0 C7.66 0.99 8.32 1.98 9 3 C7.375 4.125 7.375 4.125 5 5 C1.75 4.125 1.75 4.125 -1 3 C-0.67 2.01 -0.34 1.02 0 0 Z " fill="#2F95B9" transform="translate(420,195)"/>
<path d="M0 0 C0.99 0.33 1.98 0.66 3 1 C3.3721042 2.32303717 3.70630173 3.65737935 4 5 C4.66 5.33 5.32 5.66 6 6 C5.67 6.99 5.34 7.98 5 9 C5.66 9 6.32 9 7 9 C6.67 10.32 6.34 11.64 6 13 C2.84297684 9.09130466 0 5.1385061 0 0 Z " fill="#283066" transform="translate(19,227)"/>
<path d="M0 0 C0.66 1.65 1.32 3.3 2 5 C1.34 5 0.68 5 0 5 C-0.33 7.31 -0.66 9.62 -1 12 C-1.33 12 -1.66 12 -2 12 C-2.103125 10.741875 -2.20625 9.48375 -2.3125 8.1875 C-2.64858808 5.39500343 -2.80025876 4.25566879 -4.5625 2 C-5.036875 1.67 -5.51125 1.34 -6 1 C-4 0 -4 0 0 0 Z " fill="#D5DBEB" transform="translate(147,217)"/>
<path d="M0 0 C3 3.625 3 3.625 3 7 C1.68 7 0.36 7 -1 7 C-1.33 6.34 -1.66 5.68 -2 5 C-3.89533342 4.53476937 -3.89533342 4.53476937 -6.0625 4.375 C-7.361875 4.25125 -8.66125 4.1275 -10 4 C-10 3.67 -10 3.34 -10 3 C-9.36191406 2.95101562 -8.72382813 2.90203125 -8.06640625 2.8515625 C-7.24011719 2.77679688 -6.41382813 2.70203125 -5.5625 2.625 C-4.73878906 2.55539063 -3.91507812 2.48578125 -3.06640625 2.4140625 C-2.38449219 2.27742187 -1.70257813 2.14078125 -1 2 C-0.67 1.34 -0.34 0.68 0 0 Z " fill="#34A0C3" transform="translate(359,205)"/>
<path d="M0 0 C2.64 0 5.28 0 8 0 C7.67 1.32 7.34 2.64 7 4 C4.69 4 2.38 4 0 4 C0 2.68 0 1.36 0 0 Z " fill="#E7F4F7" transform="translate(474,205)"/>
<path d="M0 0 C0 0.66 0 1.32 0 2 C-5.35714286 7 -5.35714286 7 -9 7 C-6.79922603 2.09058114 -5.62803596 0 0 0 Z " fill="#242B6B" transform="translate(140,69)"/>
<path d="M0 0 C0.33 0.66 0.66 1.32 1 2 C3.97 1.34 6.94 0.68 10 0 C9.67 1.32 9.34 2.64 9 4 C5.7 4 2.4 4 -1 4 C-0.67 2.68 -0.34 1.36 0 0 Z " fill="#1588B0" transform="translate(349,204)"/>
<path d="M0 0 C0.33 0.66 0.66 1.32 1 2 C0.09232898 3.44319692 -0.82656106 4.87934106 -1.75 6.3125 C-2.26046875 7.11300781 -2.7709375 7.91351563 -3.296875 8.73828125 C-5.00277761 11.00368861 -6.65808145 12.42684167 -9 14 C-7.45158425 10.65291949 -5.50894136 7.75332488 -3.375 4.75 C-2.74335938 3.85796875 -2.11171875 2.9659375 -1.4609375 2.046875 C-0.73777344 1.03367188 -0.73777344 1.03367188 0 0 Z " fill="#35B3C8" transform="translate(240,231)"/>
<path d="M0 0 C2.64 0.33 5.28 0.66 8 1 C6.02 1.99 6.02 1.99 4 3 C5.65 3.33 7.3 3.66 9 4 C9 4.33 9 4.66 9 5 C2.375 5.25 2.375 5.25 -1 3 C-0.67 2.01 -0.34 1.02 0 0 Z " fill="#45ACC5" transform="translate(494,208)"/>
<path d="M0 0 C0.66 0.99 1.32 1.98 2 3 C2.66 2.67 3.32 2.34 4 2 C3.67 3.65 3.34 5.3 3 7 C1.68 7 0.36 7 -1 7 C-1.04254356 5.00045254 -1.04080783 2.99958364 -1 1 C-0.67 0.67 -0.34 0.34 0 0 Z " fill="#35A8C2" transform="translate(590,200)"/>
<path d="M0 0 C0.99 0.33 1.98 0.66 3 1 C2.67 3.97 2.34 6.94 2 10 C1.34 10 0.68 10 0 10 C-1.36952673 7.26094655 -1.12621361 5.02912668 -1 2 C-0.67 1.34 -0.34 0.68 0 0 Z " fill="#27679D" transform="translate(8,148)"/>
<path d="M0 0 C0.66 0.66 1.32 1.32 2 2 C1.6875 4.1875 1.6875 4.1875 1 7 C0.65596692 9.33177975 0.32050798 11.66487041 0 14 C-0.66 13.34 -1.32 12.68 -2 12 C-1.66887313 7.89402683 -1.15559618 3.96204403 0 0 Z " fill="#3685AE" transform="translate(11,131)"/>
<path d="M0 0 C1.32 0.33 2.64 0.66 4 1 C3.690625 1.61875 3.38125 2.2375 3.0625 2.875 C1.5960722 7.18802294 1.33380974 11.4759996 1 16 C0.67 16 0.34 16 0 16 C0 10.72 0 5.44 0 0 Z " fill="#3F5F97" transform="translate(136,101)"/>
<path d="M0 0 C0.33 0.66 0.66 1.32 1 2 C1.66 2 2.32 2 3 2 C2.3125 4.4375 2.3125 4.4375 1 7 C-1.625 7.8125 -1.625 7.8125 -4 8 C-2.87548273 5.0280615 -1.77706209 2.66559313 0 0 Z " fill="#2891B9" transform="translate(256,241)"/>
<path d="M0 0 C-0.1875 2.875 -0.1875 2.875 -1 6 C-3.5625 7.375 -3.5625 7.375 -6 8 C-5.62403791 5.21788056 -5.32681541 3.4120716 -3.5625 1.1875 C-2 0 -2 0 0 0 Z " fill="#267CAB" transform="translate(272,216)"/>
<path d="M0 0 C0.66 0.99 1.32 1.98 2 3 C1.01 3.33 0.02 3.66 -1 4 C-1 4.99 -1 5.98 -1 7 C-2.98 7 -4.96 7 -7 7 C-7 6.34 -7 5.68 -7 5 C-2.61538462 2 -2.61538462 2 0 2 C0 1.34 0 0.68 0 0 Z " fill="#38A7C5" transform="translate(603,206)"/>
<path d="M0 0 C2.97 0 5.94 0 9 0 C8.67 0.99 8.34 1.98 8 3 C5.36 3 2.72 3 0 3 C0 2.01 0 1.02 0 0 Z " fill="#1F94B9" transform="translate(376,195)"/>
<path d="M0 0 C0.99 0.33 1.98 0.66 3 1 C2.67 2.65 2.34 4.3 2 6 C0.68 6 -0.64 6 -2 6 C-1.125 1.125 -1.125 1.125 0 0 Z " fill="#1C84B3" transform="translate(143,79)"/>
<path d="M0 0 C0 0.99 0 1.98 0 3 C-2.97 3.66 -5.94 4.32 -9 5 C-8.67 3.68 -8.34 2.36 -8 1 C-5.23735711 0.40267181 -2.83967231 0 0 0 Z " fill="#27528C" transform="translate(117,34)"/>
<path d="M0 0 C0.66 0.33 1.32 0.66 2 1 C-6.261959 8.66742597 -6.261959 8.66742597 -11 10 C-7.50640535 6.40365256 -3.88901869 3.16548033 0 0 Z " fill="#2CA1C0" transform="translate(219,256)"/>
<path d="M0 0 C1.98 0.495 1.98 0.495 4 1 C3.67 3.31 3.34 5.62 3 8 C0.9375 5.6875 0.9375 5.6875 -1 3 C-0.67 2.01 -0.34 1.02 0 0 Z " fill="#2C3271" transform="translate(27,240)"/>
<path d="M0 0 C0.28875 0.61875 0.5775 1.2375 0.875 1.875 C1.93720042 4.13325765 1.93720042 4.13325765 4 6 C2.68 7.32 1.36 8.64 0 10 C-0.33 9.01 -0.66 8.02 -1 7 C-1.66 6.67 -2.32 6.34 -3 6 C-2.34 5.67 -1.68 5.34 -1 5 C-0.34444881 2.47266765 -0.34444881 2.47266765 0 0 Z " fill="#35A7C7" transform="translate(524,202)"/>
<path d="M0 0 C-0.020625 1.11375 -0.04125 2.2275 -0.0625 3.375 C-0.26380718 6.83215921 -0.26380718 6.83215921 1 9 C-0.32 9 -1.64 9 -3 9 C-3 6.36 -3 3.72 -3 1 C-1 0 -1 0 0 0 Z " fill="#38A6C5" transform="translate(408,204)"/>
<path d="M0 0 C0.99 0.33 1.98 0.66 3 1 C2.34 2.32 1.68 3.64 1 5 C0.01 5 -0.98 5 -2 5 C-2 5.66 -2 6.32 -2 7 C-2.66 7 -3.32 7 -4 7 C-3.39816251 4.97954558 -2.72693904 2.97888961 -2 1 C-1.34 0.67 -0.68 0.34 0 0 Z " fill="#2377A4" transform="translate(16,123)"/>
<path d="M0 0 C0.33 1.32 0.66 2.64 1 4 C-0.65 5.32 -2.3 6.64 -4 8 C-4.66 7.34 -5.32 6.68 -6 6 C-5.34 6 -4.68 6 -4 6 C-3.896875 5.38125 -3.79375 4.7625 -3.6875 4.125 C-3 2 -3 2 0 0 Z " fill="#2274A8" transform="translate(225,276)"/>
<path d="M0 0 C3.465 1.485 3.465 1.485 7 3 C7 3.66 7 4.32 7 5 C5.02 5 3.04 5 1 5 C0.34 3.68 -0.32 2.36 -1 1 C-0.67 0.67 -0.34 0.34 0 0 Z " fill="#1795BD" transform="translate(549,207)"/>
<path d="M0 0 C0.99 0.33 1.98 0.66 3 1 C0.25 6.875 0.25 6.875 -2 8 C-2.6875 5.6875 -2.6875 5.6875 -3 3 C-1.5625 1.1875 -1.5625 1.1875 0 0 Z " fill="#2298B2" transform="translate(593,196)"/>
<path d="M0 0 C0.33 0 0.66 0 1 0 C1.12117187 0.60328125 1.24234375 1.2065625 1.3671875 1.828125 C1.53476563 2.62734375 1.70234375 3.4265625 1.875 4.25 C2.03742188 5.03890625 2.19984375 5.8278125 2.3671875 6.640625 C2.99150075 8.96831144 3.84838542 10.89031952 5 13 C2.66971908 12.06788763 1.24108468 11.30996602 -0.3125 9.3125 C-1.29016222 6.0239998 -0.63938629 3.32480873 0 0 Z " fill="#495586" transform="translate(136,251)"/>
<path d="M0 0 C3 3.625 3 3.625 3 7 C1.35 7 -0.3 7 -2 7 C-1.34 4.69 -0.68 2.38 0 0 Z " fill="#44A7C6" transform="translate(345,206)"/>
<path d="M0 0 C2 3 2 3 2 5 C2.66 5 3.32 5 4 5 C4 5.66 4 6.32 4 7 C2.35 7 0.7 7 -1 7 C-1.33 5.68 -1.66 4.36 -2 3 C-1.34 3 -0.68 3 0 3 C0 2.01 0 1.02 0 0 Z " fill="#49AFCD" transform="translate(463,206)"/>
<path d="M0 0 C0.66 0.33 1.32 0.66 2 1 C-0.31 3.31 -2.62 5.62 -5 8 C-5.66 7.34 -6.32 6.68 -7 6 C-4.69 4.02 -2.38 2.04 0 0 Z " fill="#3399C0" transform="translate(236,269)"/>
<path d="M0 0 C1.485 0.99 1.485 0.99 3 2 C3.1875 5.625 3.1875 5.625 3 9 C2.01 9 1.02 9 0 9 C0 6.03 0 3.06 0 0 Z " fill="#148BB2" transform="translate(309,203)"/>
<path d="M0 0 C0.33 0 0.66 0 1 0 C1 2.64 1 5.28 1 8 C0.01 8 -0.98 8 -2 8 C-2.125 5.125 -2.125 5.125 -2 2 C-1.34 1.34 -0.68 0.68 0 0 Z " fill="#2A97C0" transform="translate(323,204)"/>
<path d="M0 0 C0.99 0.99 1.98 1.98 3 3 C-1.75 7 -1.75 7 -4 7 C-2.92598892 4.08482708 -2.22189824 2.22189824 0 0 Z " fill="#32A8CE" transform="translate(486,170)"/>
<path d="M0 0 C0 0.99 0 1.98 0 3 C-2.97 3 -5.94 3 -9 3 C-8 1 -8 1 -6.1875 0.375 C-4 0 -4 0 0 0 Z " fill="#118AB0" transform="translate(406,202)"/>
<path d="M0 0 C0.99 0 1.98 0 3 0 C3 2.31 3 4.62 3 7 C2.01 7 1.02 7 0 7 C0 4.69 0 2.38 0 0 Z " fill="#188AAA" transform="translate(625,195)"/>
<path d="M0 0 C0.33 0 0.66 0 1 0 C1 3.3 1 6.6 1 10 C-0.32 8.68 -1.64 7.36 -3 6 C-2.01 4.02 -1.02 2.04 0 0 Z " fill="#E7F3F7" transform="translate(623,195)"/>
<path d="M0 0 C0.66 0.66 1.32 1.32 2 2 C0.625 4 0.625 4 -1 6 C-1.66 6 -2.32 6 -3 6 C-3.99 6.495 -3.99 6.495 -5 7 C-4.60196439 4.11424181 -4.20990931 3.17810487 -1.9375 1.25 C-1.298125 0.8375 -0.65875 0.425 0 0 Z " fill="#3394BB" transform="translate(264,231)"/>
<path d="M0 0 C2.64 0 5.28 0 8 0 C8 0.99 8 1.98 8 3 C5.69 3 3.38 3 1 3 C0.67 2.01 0.34 1.02 0 0 Z " fill="#158AB5" transform="translate(312,202)"/>
<path d="M0 0 C0.99 0 1.98 0 3 0 C3.33 2.31 3.66 4.62 4 7 C3.01 6.67 2.02 6.34 1 6 C0.67 4.02 0.34 2.04 0 0 Z " fill="#2F468A" transform="translate(141,225)"/>
<path d="M0 0 C0.33 0.99 0.66 1.98 1 3 C1.99 3.33 2.98 3.66 4 4 C3.34 4.66 2.68 5.32 2 6 C-0.1640625 5.9765625 -0.1640625 5.9765625 -2.625 5.625 C-3.44226563 5.51414063 -4.25953125 5.40328125 -5.1015625 5.2890625 C-5.72804688 5.19367188 -6.35453125 5.09828125 -7 5 C-7 4.67 -7 4.34 -7 4 C-4.69 4 -2.38 4 0 4 C0 2.68 0 1.36 0 0 Z " fill="#34A4C2" transform="translate(462,200)"/>
<path d="M0 0 C2.64 0 5.28 0 8 0 C8 0.99 8 1.98 8 3 C6.35 3 4.7 3 3 3 C3 2.34 3 1.68 3 1 C2.01 0.67 1.02 0.34 0 0 Z " fill="#179ABB" transform="translate(474,202)"/>
<path d="M0 0 C1.485 0.99 1.485 0.99 3 2 C3 3.32 3 4.64 3 6 C2.01 6 1.02 6 0 6 C-0.38218767 4.34385343 -0.71395102 2.67542976 -1 1 C-0.67 0.67 -0.34 0.34 0 0 Z " fill="#1A91B5" transform="translate(618,199)"/>
<path d="M0 0 C0.99 0 1.98 0 3 0 C3 2.64 3 5.28 3 8 C2.01 7.67 1.02 7.34 0 7 C0 4.69 0 2.38 0 0 Z " fill="#198FAC" transform="translate(365,195)"/>
<path d="M0 0 C0.99 0.66 1.98 1.32 3 2 C1.68 4.31 0.36 6.62 -1 9 C-2.25541557 5.23375329 -1.37061958 3.62811066 0 0 Z " fill="#239BC0" transform="translate(25,100)"/>
<path d="M0 0 C0.33 0 0.66 0 1 0 C1.33 2.64 1.66 5.28 2 8 C0.68 8 -0.64 8 -2 8 C-2 6.68 -2 5.36 -2 4 C-1.34 4 -0.68 4 0 4 C0 2.68 0 1.36 0 0 Z " fill="#ACD6E1" transform="translate(509,201)"/>
<path d="M0 0 C0.99 0.66 1.98 1.32 3 2 C2.67 3.65 2.34 5.3 2 7 C0.68 6.67 -0.64 6.34 -2 6 C-1.34 4.02 -0.68 2.04 0 0 Z " fill="#2E96B4" transform="translate(350,195)"/>
<path d="M0 0 C-1.15173355 2.46800047 -2.04783565 4.04783565 -4 6 C-4.99 5.67 -5.98 5.34 -7 5 C-2.25 0 -2.25 0 0 0 Z " fill="#299CBF" transform="translate(596,131)"/>
<path d="M0 0 C0.33 0 0.66 0 1 0 C1 2.97 1 5.94 1 9 C-0.625 7.3125 -0.625 7.3125 -2 5 C-1.1875 2.25 -1.1875 2.25 0 0 Z " fill="#46598D" transform="translate(133,120)"/>
<path d="M0 0 C1.98 0.495 1.98 0.495 4 1 C3.67 2.32 3.34 3.64 3 5 C1.68 4.34 0.36 3.68 -1 3 C-0.67 2.01 -0.34 1.02 0 0 Z " fill="#223171" transform="translate(129,118)"/>
<path d="M0 0 C2.97 0 5.94 0 9 0 C5.375 3 5.375 3 2 3 C2 2.34 2 1.68 2 1 C1.34 0.67 0.68 0.34 0 0 Z " fill="#253570" transform="translate(93,96)"/>
<path d="M0 0 C0.33 0 0.66 0 1 0 C1.66 3.3 2.32 6.6 3 10 C2.01 10.495 2.01 10.495 1 11 C-0.20272819 8.59454362 -0.10071472 7.05003047 -0.0625 4.375 C-0.05347656 3.55773437 -0.04445312 2.74046875 -0.03515625 1.8984375 C-0.02355469 1.27195312 -0.01195312 0.64546875 0 0 Z " fill="#2B316D" transform="translate(130,79)"/>
</svg>
